<mxfile host="Electron" modified="2023-12-20T11:18:09.238Z" agent="Mozilla/5.0 (Windows NT 10.0; Win64; x64) AppleWebKit/537.36 (KHTML, like Gecko) draw.io/22.0.3 Chrome/114.0.5735.289 Electron/25.8.4 Safari/537.36" etag="OSUfFDOuOVJtzR0WDhkf" version="22.0.3" type="device">
  <diagram name="UML Activity Diagram - Chirp!" id="g-HJcAP9csvSG7krFRJP">
    <mxGraphModel dx="2849" dy="1194" grid="1" gridSize="10" guides="1" tooltips="1" connect="1" arrows="1" fold="1" page="0" pageScale="1" pageWidth="850" pageHeight="1100" math="0" shadow="0">
      <root>
        <mxCell id="0" style="fontFamily=Helvetica;fontSize=11;fontColor=default;" />
        <mxCell id="1" style="fontFamily=Helvetica;fontSize=11;fontColor=default;" parent="0" />
        <mxCell id="UVocr931k_2hGVf8hIcp-141" style="edgeStyle=orthogonalEdgeStyle;shape=connector;rounded=0;orthogonalLoop=1;jettySize=auto;html=1;labelBackgroundColor=default;strokeColor=#42FF75;strokeWidth=2;align=center;verticalAlign=bottom;fontFamily=Helvetica;fontSize=11;fontColor=default;endArrow=classic;endFill=1;endSize=8;" parent="1" edge="1">
          <mxGeometry relative="1" as="geometry">
            <mxPoint x="-329.99969696969674" y="680" as="targetPoint" />
            <Array as="points">
              <mxPoint x="490" y="600" />
              <mxPoint x="490" y="650" />
              <mxPoint x="-330" y="650" />
            </Array>
            <mxPoint x="490" y="600" as="sourcePoint" />
          </mxGeometry>
        </mxCell>
        <mxCell id="UVocr931k_2hGVf8hIcp-138" style="edgeStyle=orthogonalEdgeStyle;shape=connector;rounded=0;orthogonalLoop=1;jettySize=auto;html=1;entryX=0.583;entryY=0;entryDx=0;entryDy=0;entryPerimeter=0;labelBackgroundColor=default;strokeColor=#42FF75;strokeWidth=2;align=center;verticalAlign=bottom;fontFamily=Helvetica;fontSize=11;fontColor=default;endArrow=classic;endFill=1;endSize=8;" parent="1" source="UVocr931k_2hGVf8hIcp-30" target="UVocr931k_2hGVf8hIcp-78" edge="1">
          <mxGeometry relative="1" as="geometry">
            <Array as="points">
              <mxPoint x="510" y="650" />
              <mxPoint x="710" y="650" />
            </Array>
          </mxGeometry>
        </mxCell>
        <mxCell id="UVocr931k_2hGVf8hIcp-10" style="edgeStyle=orthogonalEdgeStyle;shape=connector;rounded=0;orthogonalLoop=1;jettySize=auto;html=1;labelBackgroundColor=default;strokeColor=#FFC53D;align=center;verticalAlign=bottom;fontFamily=Helvetica;fontSize=11;fontColor=default;endArrow=classic;endSize=8;strokeWidth=2;endFill=1;" parent="1" source="UVocr931k_2hGVf8hIcp-8" edge="1">
          <mxGeometry relative="1" as="geometry">
            <Array as="points">
              <mxPoint x="400" y="260" />
              <mxPoint x="400" y="260" />
            </Array>
            <mxPoint x="400" y="280" as="targetPoint" />
          </mxGeometry>
        </mxCell>
        <mxCell id="UVocr931k_2hGVf8hIcp-8" value="" style="ellipse;whiteSpace=wrap;html=1;aspect=fixed;gradientColor=#404040;shadow=1;fontFamily=Helvetica;fontSize=11;fontColor=default;" parent="1" vertex="1">
          <mxGeometry x="380" y="200" width="40" height="40" as="geometry" />
        </mxCell>
        <mxCell id="UVocr931k_2hGVf8hIcp-15" value="" style="edgeStyle=orthogonalEdgeStyle;shape=connector;rounded=0;orthogonalLoop=1;jettySize=auto;html=1;labelBackgroundColor=default;strokeColor=#FFC53D;strokeWidth=2;align=center;verticalAlign=bottom;fontFamily=Helvetica;fontSize=11;fontColor=default;endArrow=classic;endSize=8;endFill=1;" parent="1" target="UVocr931k_2hGVf8hIcp-11" edge="1">
          <mxGeometry relative="1" as="geometry">
            <mxPoint x="400.0344827586209" y="320" as="sourcePoint" />
            <Array as="points">
              <mxPoint x="400" y="340" />
              <mxPoint x="400" y="340" />
            </Array>
          </mxGeometry>
        </mxCell>
        <mxCell id="UVocr931k_2hGVf8hIcp-100" style="edgeStyle=orthogonalEdgeStyle;shape=connector;rounded=0;orthogonalLoop=1;jettySize=auto;html=1;labelBackgroundColor=default;strokeColor=#FFC53D;strokeWidth=2;align=center;verticalAlign=bottom;fontFamily=Helvetica;fontSize=11;fontColor=default;endArrow=classic;endSize=8;endFill=1;" parent="1" source="UVocr931k_2hGVf8hIcp-9" target="UVocr931k_2hGVf8hIcp-64" edge="1">
          <mxGeometry relative="1" as="geometry" />
        </mxCell>
        <mxCell id="UVocr931k_2hGVf8hIcp-9" value="Public Timeline&lt;br&gt;(unauthenticated)" style="rounded=1;whiteSpace=wrap;html=1;arcSize=40;fontColor=#000000;fillColor=#ffffc0;strokeColor=#FFA914;gradientColor=#F0C686;fontFamily=Helvetica;fontSize=11;" parent="1" vertex="1">
          <mxGeometry x="340" y="280" width="120" height="40" as="geometry" />
        </mxCell>
        <mxCell id="UVocr931k_2hGVf8hIcp-20" value="" style="edgeStyle=orthogonalEdgeStyle;shape=connector;rounded=0;orthogonalLoop=1;jettySize=auto;html=1;labelBackgroundColor=default;strokeColor=#FFC53D;strokeWidth=2;align=center;verticalAlign=bottom;fontFamily=Helvetica;fontSize=11;fontColor=default;endArrow=classic;endSize=8;endFill=1;" parent="1" source="UVocr931k_2hGVf8hIcp-11" edge="1">
          <mxGeometry relative="1" as="geometry">
            <mxPoint x="400.0344827586209" y="440" as="targetPoint" />
            <Array as="points">
              <mxPoint x="400" y="420" />
              <mxPoint x="400" y="420" />
            </Array>
          </mxGeometry>
        </mxCell>
        <mxCell id="UVocr931k_2hGVf8hIcp-23" style="edgeStyle=orthogonalEdgeStyle;shape=connector;rounded=0;orthogonalLoop=1;jettySize=auto;html=1;labelBackgroundColor=default;strokeColor=#FF3333;strokeWidth=2;align=center;verticalAlign=bottom;fontFamily=Helvetica;fontSize=11;fontColor=default;endArrow=classic;endSize=8;exitX=0;exitY=0.5;exitDx=0;exitDy=0;entryX=0;entryY=0.5;entryDx=0;entryDy=0;endFill=1;" parent="1" source="UVocr931k_2hGVf8hIcp-17" target="UVocr931k_2hGVf8hIcp-9" edge="1">
          <mxGeometry relative="1" as="geometry">
            <mxPoint x="370" y="300" as="targetPoint" />
            <Array as="points">
              <mxPoint x="300" y="460" />
              <mxPoint x="300" y="300" />
            </Array>
          </mxGeometry>
        </mxCell>
        <mxCell id="UVocr931k_2hGVf8hIcp-11" value="&lt;font color=&quot;#ffffff&quot;&gt;Sign in&lt;/font&gt;" style="rounded=1;whiteSpace=wrap;html=1;arcSize=40;fontColor=#000000;fillColor=#4ED4D0;strokeColor=#1CD4C2;gradientColor=#1C3F40;fontFamily=Helvetica;fontSize=11;" parent="1" vertex="1">
          <mxGeometry x="370" y="360" width="60" height="40" as="geometry" />
        </mxCell>
        <mxCell id="UVocr931k_2hGVf8hIcp-121" style="edgeStyle=orthogonalEdgeStyle;shape=connector;rounded=0;orthogonalLoop=1;jettySize=auto;html=1;labelBackgroundColor=default;strokeColor=#42FF75;strokeWidth=2;align=center;verticalAlign=bottom;fontFamily=Helvetica;fontSize=11;fontColor=default;endArrow=classic;endFill=1;endSize=8;" parent="1" source="UVocr931k_2hGVf8hIcp-17" target="UVocr931k_2hGVf8hIcp-30" edge="1">
          <mxGeometry relative="1" as="geometry" />
        </mxCell>
        <mxCell id="UVocr931k_2hGVf8hIcp-17" value="Successful?" style="shape=hexagon;perimeter=hexagonPerimeter2;whiteSpace=wrap;html=1;fixedSize=1;fontFamily=Helvetica;fontSize=12;fontColor=#ffffff;gradientColor=#303030;fillColor=#263F63;strokeColor=#006EAF;rounded=0;" parent="1" vertex="1">
          <mxGeometry x="350" y="440" width="100" height="40" as="geometry" />
        </mxCell>
        <mxCell id="UVocr931k_2hGVf8hIcp-19" value="&lt;font color=&quot;#ff6b6b&quot;&gt;No&lt;/font&gt;" style="text;html=1;align=center;verticalAlign=middle;resizable=0;points=[];autosize=1;strokeColor=none;fillColor=none;fontSize=11;fontFamily=Helvetica;fontColor=default;" parent="1" vertex="1">
          <mxGeometry x="310" y="430" width="40" height="30" as="geometry" />
        </mxCell>
        <mxCell id="86_-Uz71LiWEpe0kazTY-22" value="" style="edgeStyle=orthogonalEdgeStyle;shape=connector;rounded=0;orthogonalLoop=1;jettySize=auto;html=1;labelBackgroundColor=default;strokeColor=#FFC53D;strokeWidth=2;align=center;verticalAlign=bottom;fontFamily=Helvetica;fontSize=11;fontColor=default;endArrow=classic;endFill=1;endSize=8;" parent="1" source="UVocr931k_2hGVf8hIcp-21" target="86_-Uz71LiWEpe0kazTY-20" edge="1">
          <mxGeometry relative="1" as="geometry">
            <Array as="points">
              <mxPoint x="300" y="700" />
            </Array>
          </mxGeometry>
        </mxCell>
        <mxCell id="UVocr931k_2hGVf8hIcp-21" value="Public Timeline&lt;br&gt;(authenticated)" style="rounded=1;whiteSpace=wrap;html=1;arcSize=40;fontColor=#000000;fillColor=#ffffc0;strokeColor=#FFA914;gradientColor=#F0C686;fontFamily=Helvetica;fontSize=11;" parent="1" vertex="1">
          <mxGeometry x="440" y="680" width="120" height="40" as="geometry" />
        </mxCell>
        <mxCell id="UVocr931k_2hGVf8hIcp-190" style="edgeStyle=orthogonalEdgeStyle;shape=connector;rounded=0;orthogonalLoop=1;jettySize=auto;html=1;labelBackgroundColor=default;strokeColor=#FFC53D;strokeWidth=2;align=center;verticalAlign=bottom;fontFamily=Helvetica;fontSize=11;fontColor=default;endArrow=classic;endFill=1;endSize=8;" parent="1" source="UVocr931k_2hGVf8hIcp-27" target="UVocr931k_2hGVf8hIcp-180" edge="1">
          <mxGeometry relative="1" as="geometry" />
        </mxCell>
        <mxCell id="UVocr931k_2hGVf8hIcp-193" style="edgeStyle=orthogonalEdgeStyle;shape=connector;rounded=0;orthogonalLoop=1;jettySize=auto;html=1;labelBackgroundColor=default;strokeColor=#FFC53D;strokeWidth=2;align=center;verticalAlign=bottom;fontFamily=Helvetica;fontSize=11;fontColor=default;endArrow=classic;endFill=1;endSize=8;" parent="1" source="UVocr931k_2hGVf8hIcp-27" target="UVocr931k_2hGVf8hIcp-179" edge="1">
          <mxGeometry relative="1" as="geometry" />
        </mxCell>
        <mxCell id="UVocr931k_2hGVf8hIcp-381" style="edgeStyle=orthogonalEdgeStyle;shape=connector;rounded=0;orthogonalLoop=1;jettySize=auto;html=1;entryX=0.25;entryY=0;entryDx=0;entryDy=0;labelBackgroundColor=default;strokeColor=#FFC53D;strokeWidth=2;align=center;verticalAlign=bottom;fontFamily=Helvetica;fontSize=11;fontColor=default;endArrow=classic;endFill=1;endSize=8;" parent="1" source="UVocr931k_2hGVf8hIcp-27" target="UVocr931k_2hGVf8hIcp-278" edge="1">
          <mxGeometry relative="1" as="geometry" />
        </mxCell>
        <mxCell id="86_-Uz71LiWEpe0kazTY-2" style="edgeStyle=orthogonalEdgeStyle;shape=connector;rounded=0;orthogonalLoop=1;jettySize=auto;html=1;entryX=0;entryY=0.5;entryDx=0;entryDy=0;labelBackgroundColor=default;strokeColor=#FFC53D;strokeWidth=2;align=center;verticalAlign=bottom;fontFamily=Helvetica;fontSize=11;fontColor=default;endArrow=classic;endFill=1;endSize=8;" parent="1" source="UVocr931k_2hGVf8hIcp-27" target="UVocr931k_2hGVf8hIcp-217" edge="1">
          <mxGeometry relative="1" as="geometry">
            <Array as="points">
              <mxPoint x="-340" y="1460" />
              <mxPoint x="400" y="1460" />
              <mxPoint x="400" y="1220" />
            </Array>
          </mxGeometry>
        </mxCell>
        <mxCell id="UVocr931k_2hGVf8hIcp-27" value="About me" style="rounded=1;whiteSpace=wrap;html=1;arcSize=40;fontColor=#000000;fillColor=#ffffc0;strokeColor=#FFA914;gradientColor=#F0C686;fontFamily=Helvetica;fontSize=11;" parent="1" vertex="1">
          <mxGeometry x="-400" y="680" width="120" height="40" as="geometry" />
        </mxCell>
        <mxCell id="UVocr931k_2hGVf8hIcp-128" style="edgeStyle=orthogonalEdgeStyle;shape=connector;rounded=0;orthogonalLoop=1;jettySize=auto;html=1;labelBackgroundColor=default;strokeColor=#FF3333;strokeWidth=2;align=center;verticalAlign=bottom;fontFamily=Helvetica;fontSize=11;fontColor=default;endArrow=classic;endFill=1;endSize=8;" parent="1" edge="1">
          <mxGeometry relative="1" as="geometry">
            <mxPoint x="490" y="600" as="sourcePoint" />
            <mxPoint x="490" y="680" as="targetPoint" />
          </mxGeometry>
        </mxCell>
        <mxCell id="UVocr931k_2hGVf8hIcp-131" style="edgeStyle=orthogonalEdgeStyle;shape=connector;rounded=0;orthogonalLoop=1;jettySize=auto;html=1;labelBackgroundColor=default;strokeColor=#42FF75;strokeWidth=2;align=center;verticalAlign=bottom;fontFamily=Helvetica;fontSize=11;fontColor=default;endArrow=classic;endFill=1;endSize=8;" parent="1" edge="1">
          <mxGeometry relative="1" as="geometry">
            <mxPoint x="510" y="600" as="sourcePoint" />
            <mxPoint x="510" y="680" as="targetPoint" />
          </mxGeometry>
        </mxCell>
        <mxCell id="UVocr931k_2hGVf8hIcp-142" style="edgeStyle=orthogonalEdgeStyle;shape=connector;rounded=0;orthogonalLoop=1;jettySize=auto;html=1;labelBackgroundColor=default;strokeColor=#42FF75;strokeWidth=2;align=center;verticalAlign=bottom;fontFamily=Helvetica;fontSize=11;fontColor=default;endArrow=classic;endFill=1;endSize=8;entryX=0.556;entryY=0.033;entryDx=0;entryDy=0;entryPerimeter=0;" parent="1" source="UVocr931k_2hGVf8hIcp-30" target="UVocr931k_2hGVf8hIcp-70" edge="1">
          <mxGeometry relative="1" as="geometry">
            <Array as="points">
              <mxPoint x="510" y="650" />
              <mxPoint x="67" y="650" />
            </Array>
          </mxGeometry>
        </mxCell>
        <mxCell id="UVocr931k_2hGVf8hIcp-143" style="edgeStyle=orthogonalEdgeStyle;shape=connector;rounded=0;orthogonalLoop=1;jettySize=auto;html=1;labelBackgroundColor=default;strokeColor=#FF3333;strokeWidth=2;align=center;verticalAlign=bottom;fontFamily=Helvetica;fontSize=11;fontColor=default;endArrow=classic;endFill=1;endSize=8;entryX=0.417;entryY=0;entryDx=0;entryDy=0;entryPerimeter=0;" parent="1" source="UVocr931k_2hGVf8hIcp-30" target="UVocr931k_2hGVf8hIcp-27" edge="1">
          <mxGeometry relative="1" as="geometry">
            <mxPoint x="-150" y="660" as="targetPoint" />
            <Array as="points">
              <mxPoint x="490" y="630" />
              <mxPoint x="-350" y="630" />
            </Array>
          </mxGeometry>
        </mxCell>
        <mxCell id="UVocr931k_2hGVf8hIcp-145" style="edgeStyle=orthogonalEdgeStyle;shape=connector;rounded=0;orthogonalLoop=1;jettySize=auto;html=1;labelBackgroundColor=default;strokeColor=#42FF75;strokeWidth=2;align=center;verticalAlign=bottom;fontFamily=Helvetica;fontSize=11;fontColor=default;endArrow=classic;endFill=1;endSize=8;" parent="1" source="UVocr931k_2hGVf8hIcp-30" target="UVocr931k_2hGVf8hIcp-33" edge="1">
          <mxGeometry relative="1" as="geometry">
            <Array as="points">
              <mxPoint x="510" y="650" />
              <mxPoint x="860" y="650" />
            </Array>
          </mxGeometry>
        </mxCell>
        <mxCell id="UVocr931k_2hGVf8hIcp-30" value="Authorized?" style="shape=hexagon;perimeter=hexagonPerimeter2;whiteSpace=wrap;html=1;fixedSize=1;fontFamily=Helvetica;fontSize=12;fontColor=#ffffff;gradientColor=#303030;fillColor=#263F63;strokeColor=#006EAF;rounded=0;" parent="1" vertex="1">
          <mxGeometry x="450" y="560" width="100" height="40" as="geometry" />
        </mxCell>
        <mxCell id="UVocr931k_2hGVf8hIcp-171" style="edgeStyle=orthogonalEdgeStyle;shape=connector;rounded=0;orthogonalLoop=1;jettySize=auto;html=1;labelBackgroundColor=default;strokeColor=#FFC53D;strokeWidth=2;align=center;verticalAlign=bottom;fontFamily=Helvetica;fontSize=11;fontColor=default;endArrow=classic;endFill=1;endSize=8;" parent="1" source="UVocr931k_2hGVf8hIcp-33" target="UVocr931k_2hGVf8hIcp-168" edge="1">
          <mxGeometry relative="1" as="geometry" />
        </mxCell>
        <mxCell id="UVocr931k_2hGVf8hIcp-172" style="edgeStyle=orthogonalEdgeStyle;shape=connector;rounded=0;orthogonalLoop=1;jettySize=auto;html=1;labelBackgroundColor=default;strokeColor=#FFC53D;strokeWidth=2;align=center;verticalAlign=bottom;fontFamily=Helvetica;fontSize=11;fontColor=default;endArrow=classic;endFill=1;endSize=8;" parent="1" source="UVocr931k_2hGVf8hIcp-33" target="UVocr931k_2hGVf8hIcp-169" edge="1">
          <mxGeometry relative="1" as="geometry" />
        </mxCell>
        <mxCell id="UVocr931k_2hGVf8hIcp-173" style="edgeStyle=orthogonalEdgeStyle;shape=connector;rounded=0;orthogonalLoop=1;jettySize=auto;html=1;labelBackgroundColor=default;strokeColor=#FFC53D;strokeWidth=2;align=center;verticalAlign=bottom;fontFamily=Helvetica;fontSize=11;fontColor=default;endArrow=classic;endFill=1;endSize=8;" parent="1" source="UVocr931k_2hGVf8hIcp-33" target="UVocr931k_2hGVf8hIcp-170" edge="1">
          <mxGeometry relative="1" as="geometry" />
        </mxCell>
        <mxCell id="UVocr931k_2hGVf8hIcp-326" style="edgeStyle=orthogonalEdgeStyle;shape=connector;rounded=0;orthogonalLoop=1;jettySize=auto;html=1;entryX=1;entryY=0.5;entryDx=0;entryDy=0;labelBackgroundColor=default;strokeColor=#FFC53D;strokeWidth=2;align=center;verticalAlign=bottom;fontFamily=Helvetica;fontSize=11;fontColor=default;endArrow=classic;endFill=1;endSize=8;" parent="1" source="UVocr931k_2hGVf8hIcp-33" target="UVocr931k_2hGVf8hIcp-217" edge="1">
          <mxGeometry relative="1" as="geometry">
            <Array as="points">
              <mxPoint x="1020" y="700" />
              <mxPoint x="1020" y="1220" />
            </Array>
          </mxGeometry>
        </mxCell>
        <mxCell id="UVocr931k_2hGVf8hIcp-33" value="Seed DB&lt;br&gt;(authorized)" style="rounded=1;whiteSpace=wrap;html=1;arcSize=40;fontColor=#000000;fillColor=#ffffc0;strokeColor=#FFA914;gradientColor=#F0C686;fontFamily=Helvetica;fontSize=11;" parent="1" vertex="1">
          <mxGeometry x="800" y="680" width="120" height="40" as="geometry" />
        </mxCell>
        <mxCell id="UVocr931k_2hGVf8hIcp-48" value="" style="edgeStyle=orthogonalEdgeStyle;shape=connector;rounded=0;orthogonalLoop=1;jettySize=auto;html=1;labelBackgroundColor=default;strokeColor=#FFC53D;strokeWidth=2;align=center;verticalAlign=bottom;fontFamily=Helvetica;fontSize=11;fontColor=default;endArrow=classic;endSize=8;endFill=1;" parent="1" source="UVocr931k_2hGVf8hIcp-42" target="UVocr931k_2hGVf8hIcp-45" edge="1">
          <mxGeometry relative="1" as="geometry" />
        </mxCell>
        <mxCell id="UVocr931k_2hGVf8hIcp-42" value="&lt;font color=&quot;#ffffff&quot;&gt;Type cheep&lt;/font&gt;" style="rounded=1;whiteSpace=wrap;html=1;arcSize=40;fontColor=#000000;fillColor=#4ED4D0;strokeColor=#1CD4C2;gradientColor=#1C3F40;fontFamily=Helvetica;fontSize=11;" parent="1" vertex="1">
          <mxGeometry y="800" width="120" height="40" as="geometry" />
        </mxCell>
        <mxCell id="UVocr931k_2hGVf8hIcp-62" value="" style="edgeStyle=orthogonalEdgeStyle;shape=connector;rounded=0;orthogonalLoop=1;jettySize=auto;html=1;labelBackgroundColor=default;strokeColor=#FFC53D;strokeWidth=2;align=center;verticalAlign=bottom;fontFamily=Helvetica;fontSize=11;fontColor=default;endArrow=classic;endSize=8;endFill=1;" parent="1" source="UVocr931k_2hGVf8hIcp-45" target="UVocr931k_2hGVf8hIcp-61" edge="1">
          <mxGeometry relative="1" as="geometry">
            <Array as="points">
              <mxPoint x="60" y="940" />
              <mxPoint x="60" y="940" />
            </Array>
          </mxGeometry>
        </mxCell>
        <mxCell id="UVocr931k_2hGVf8hIcp-45" value="&lt;font color=&quot;#ffffff&quot;&gt;Share/Cheep!&lt;/font&gt;" style="rounded=1;whiteSpace=wrap;html=1;arcSize=40;fontColor=#000000;fillColor=#4ED4D0;strokeColor=#1CD4C2;gradientColor=#1C3F40;fontFamily=Helvetica;fontSize=11;" parent="1" vertex="1">
          <mxGeometry y="880" width="120" height="40" as="geometry" />
        </mxCell>
        <mxCell id="UVocr931k_2hGVf8hIcp-149" value="" style="edgeStyle=orthogonalEdgeStyle;shape=connector;rounded=0;orthogonalLoop=1;jettySize=auto;html=1;labelBackgroundColor=default;strokeColor=#42FF75;strokeWidth=2;align=center;verticalAlign=bottom;fontFamily=Helvetica;fontSize=11;fontColor=default;endArrow=classic;endFill=1;endSize=8;" parent="1" source="UVocr931k_2hGVf8hIcp-61" target="UVocr931k_2hGVf8hIcp-148" edge="1">
          <mxGeometry relative="1" as="geometry">
            <Array as="points">
              <mxPoint x="60" y="1020" />
              <mxPoint x="60" y="1020" />
            </Array>
          </mxGeometry>
        </mxCell>
        <mxCell id="UVocr931k_2hGVf8hIcp-154" style="edgeStyle=orthogonalEdgeStyle;shape=connector;rounded=0;orthogonalLoop=1;jettySize=auto;html=1;entryX=0.5;entryY=1;entryDx=0;entryDy=0;labelBackgroundColor=default;strokeColor=#FF3333;strokeWidth=2;align=center;verticalAlign=bottom;fontFamily=Helvetica;fontSize=11;fontColor=default;endArrow=classic;endFill=1;endSize=8;" parent="1" source="UVocr931k_2hGVf8hIcp-61" target="UVocr931k_2hGVf8hIcp-152" edge="1">
          <mxGeometry relative="1" as="geometry" />
        </mxCell>
        <mxCell id="UVocr931k_2hGVf8hIcp-61" value="Valid?" style="shape=hexagon;perimeter=hexagonPerimeter2;whiteSpace=wrap;html=1;fixedSize=1;fontFamily=Helvetica;fontSize=12;fontColor=#ffffff;gradientColor=#303030;fillColor=#263F63;strokeColor=#006EAF;rounded=0;" parent="1" vertex="1">
          <mxGeometry x="10" y="960" width="100" height="40" as="geometry" />
        </mxCell>
        <mxCell id="UVocr931k_2hGVf8hIcp-84" style="edgeStyle=orthogonalEdgeStyle;shape=connector;rounded=0;orthogonalLoop=1;jettySize=auto;html=1;labelBackgroundColor=default;strokeColor=#FFC53D;strokeWidth=2;align=center;verticalAlign=bottom;fontFamily=Helvetica;fontSize=11;fontColor=default;endArrow=open;endSize=8;" parent="1" source="UVocr931k_2hGVf8hIcp-64" target="UVocr931k_2hGVf8hIcp-83" edge="1">
          <mxGeometry relative="1" as="geometry" />
        </mxCell>
        <mxCell id="UVocr931k_2hGVf8hIcp-101" style="edgeStyle=orthogonalEdgeStyle;shape=connector;rounded=0;orthogonalLoop=1;jettySize=auto;html=1;labelBackgroundColor=default;strokeColor=#FFC53D;strokeWidth=2;align=center;verticalAlign=bottom;fontFamily=Helvetica;fontSize=11;fontColor=default;endArrow=classic;endSize=8;endFill=1;" parent="1" source="UVocr931k_2hGVf8hIcp-64" target="UVocr931k_2hGVf8hIcp-9" edge="1">
          <mxGeometry relative="1" as="geometry" />
        </mxCell>
        <mxCell id="UVocr931k_2hGVf8hIcp-64" value="Privacy&lt;br&gt;(unauthenticated)" style="rounded=1;whiteSpace=wrap;html=1;arcSize=40;fontColor=#000000;fillColor=#ffffc0;strokeColor=#FFA914;gradientColor=#F0C686;fontFamily=Helvetica;fontSize=11;" parent="1" vertex="1">
          <mxGeometry x="540" y="280" width="120" height="40" as="geometry" />
        </mxCell>
        <mxCell id="UVocr931k_2hGVf8hIcp-146" value="" style="edgeStyle=orthogonalEdgeStyle;shape=connector;rounded=0;orthogonalLoop=1;jettySize=auto;html=1;labelBackgroundColor=default;strokeColor=#FFC53D;strokeWidth=2;align=center;verticalAlign=bottom;fontFamily=Helvetica;fontSize=11;fontColor=default;endArrow=classic;endFill=1;endSize=8;" parent="1" source="UVocr931k_2hGVf8hIcp-70" target="UVocr931k_2hGVf8hIcp-42" edge="1">
          <mxGeometry relative="1" as="geometry" />
        </mxCell>
        <mxCell id="86_-Uz71LiWEpe0kazTY-34" style="edgeStyle=orthogonalEdgeStyle;shape=connector;rounded=0;orthogonalLoop=1;jettySize=auto;html=1;labelBackgroundColor=default;strokeColor=#FFC53D;strokeWidth=2;align=center;verticalAlign=bottom;fontFamily=Helvetica;fontSize=11;fontColor=default;endArrow=classic;endFill=1;endSize=8;" parent="1" source="UVocr931k_2hGVf8hIcp-70" target="86_-Uz71LiWEpe0kazTY-20" edge="1">
          <mxGeometry relative="1" as="geometry" />
        </mxCell>
        <mxCell id="UVocr931k_2hGVf8hIcp-70" value="User Timeline" style="rounded=1;whiteSpace=wrap;html=1;arcSize=40;fontColor=#000000;fillColor=#ffffc0;strokeColor=#FFA914;gradientColor=#F0C686;fontFamily=Helvetica;fontSize=11;" parent="1" vertex="1">
          <mxGeometry y="680" width="120" height="40" as="geometry" />
        </mxCell>
        <mxCell id="86_-Uz71LiWEpe0kazTY-1" style="edgeStyle=orthogonalEdgeStyle;shape=connector;rounded=0;orthogonalLoop=1;jettySize=auto;html=1;labelBackgroundColor=default;strokeColor=#FFC53D;strokeWidth=2;align=center;verticalAlign=bottom;fontFamily=Helvetica;fontSize=11;fontColor=default;endArrow=classic;endFill=1;endSize=8;" parent="1" source="UVocr931k_2hGVf8hIcp-78" target="UVocr931k_2hGVf8hIcp-217" edge="1">
          <mxGeometry relative="1" as="geometry">
            <Array as="points">
              <mxPoint x="700" y="630" />
              <mxPoint x="1020" y="630" />
              <mxPoint x="1020" y="1220" />
            </Array>
          </mxGeometry>
        </mxCell>
        <mxCell id="UVocr931k_2hGVf8hIcp-78" value="Privacy&lt;br&gt;(authenticated)" style="rounded=1;whiteSpace=wrap;html=1;arcSize=40;fontColor=#000000;fillColor=#ffffc0;strokeColor=#FFA914;gradientColor=#F0C686;fontFamily=Helvetica;fontSize=11;" parent="1" vertex="1">
          <mxGeometry x="640" y="680" width="120" height="40" as="geometry" />
        </mxCell>
        <mxCell id="UVocr931k_2hGVf8hIcp-86" value="" style="edgeStyle=orthogonalEdgeStyle;shape=connector;rounded=0;orthogonalLoop=1;jettySize=auto;html=1;labelBackgroundColor=default;strokeColor=#FFC53D;strokeWidth=2;align=center;verticalAlign=bottom;fontFamily=Helvetica;fontSize=11;fontColor=default;endArrow=classic;endSize=8;endFill=1;" parent="1" source="UVocr931k_2hGVf8hIcp-83" target="UVocr931k_2hGVf8hIcp-85" edge="1">
          <mxGeometry relative="1" as="geometry">
            <Array as="points">
              <mxPoint x="600" y="420" />
              <mxPoint x="600" y="420" />
            </Array>
          </mxGeometry>
        </mxCell>
        <mxCell id="UVocr931k_2hGVf8hIcp-83" value="&lt;font color=&quot;#ffffff&quot;&gt;Sign In&lt;/font&gt;" style="rounded=1;whiteSpace=wrap;html=1;arcSize=40;fontColor=#000000;fillColor=#4ED4D0;strokeColor=#1CD4C2;gradientColor=#1C3F40;fontFamily=Helvetica;fontSize=11;" parent="1" vertex="1">
          <mxGeometry x="570" y="360" width="60" height="40" as="geometry" />
        </mxCell>
        <mxCell id="UVocr931k_2hGVf8hIcp-87" style="edgeStyle=orthogonalEdgeStyle;shape=connector;rounded=0;orthogonalLoop=1;jettySize=auto;html=1;entryX=1;entryY=0.5;entryDx=0;entryDy=0;labelBackgroundColor=default;strokeColor=#FF3333;strokeWidth=2;align=center;verticalAlign=bottom;fontFamily=Helvetica;fontSize=11;fontColor=default;endArrow=classic;endSize=8;endFill=1;" parent="1" source="UVocr931k_2hGVf8hIcp-85" target="UVocr931k_2hGVf8hIcp-64" edge="1">
          <mxGeometry relative="1" as="geometry">
            <Array as="points">
              <mxPoint x="700" y="460" />
              <mxPoint x="700" y="300" />
            </Array>
          </mxGeometry>
        </mxCell>
        <mxCell id="UVocr931k_2hGVf8hIcp-122" style="edgeStyle=orthogonalEdgeStyle;shape=connector;rounded=0;orthogonalLoop=1;jettySize=auto;html=1;labelBackgroundColor=default;strokeColor=#42FF75;strokeWidth=2;align=center;verticalAlign=bottom;fontFamily=Helvetica;fontSize=11;fontColor=default;endArrow=classic;endFill=1;endSize=8;" parent="1" source="UVocr931k_2hGVf8hIcp-85" target="UVocr931k_2hGVf8hIcp-30" edge="1">
          <mxGeometry relative="1" as="geometry" />
        </mxCell>
        <mxCell id="UVocr931k_2hGVf8hIcp-85" value="Successful?" style="shape=hexagon;perimeter=hexagonPerimeter2;whiteSpace=wrap;html=1;fixedSize=1;fontFamily=Helvetica;fontSize=12;fontColor=#ffffff;gradientColor=#303030;fillColor=#263F63;strokeColor=#006EAF;rounded=0;" parent="1" vertex="1">
          <mxGeometry x="550" y="440" width="100" height="40" as="geometry" />
        </mxCell>
        <mxCell id="UVocr931k_2hGVf8hIcp-108" style="edgeStyle=orthogonalEdgeStyle;shape=connector;rounded=0;orthogonalLoop=1;jettySize=auto;html=1;labelBackgroundColor=default;strokeColor=#FF3333;strokeWidth=2;align=center;verticalAlign=bottom;fontFamily=Helvetica;fontSize=11;fontColor=default;endArrow=classic;endSize=8;endFill=1;" parent="1" edge="1">
          <mxGeometry relative="1" as="geometry">
            <mxPoint x="700" y="430" as="sourcePoint" />
            <mxPoint x="700" y="370" as="targetPoint" />
            <Array as="points">
              <mxPoint x="700" y="430" />
              <mxPoint x="700" y="270" />
            </Array>
          </mxGeometry>
        </mxCell>
        <mxCell id="UVocr931k_2hGVf8hIcp-109" style="edgeStyle=orthogonalEdgeStyle;shape=connector;rounded=0;orthogonalLoop=1;jettySize=auto;html=1;labelBackgroundColor=default;strokeColor=#FF3333;strokeWidth=2;align=center;verticalAlign=bottom;fontFamily=Helvetica;fontSize=11;fontColor=default;endArrow=classic;endSize=8;endFill=1;" parent="1" edge="1">
          <mxGeometry relative="1" as="geometry">
            <mxPoint x="300" y="430" as="sourcePoint" />
            <mxPoint x="300" y="370" as="targetPoint" />
            <Array as="points">
              <mxPoint x="300" y="430" />
              <mxPoint x="300" y="270" />
            </Array>
          </mxGeometry>
        </mxCell>
        <mxCell id="UVocr931k_2hGVf8hIcp-110" value="&lt;font color=&quot;#ff6b6b&quot;&gt;No&lt;/font&gt;" style="text;html=1;align=center;verticalAlign=middle;resizable=0;points=[];autosize=1;strokeColor=none;fillColor=none;fontSize=11;fontFamily=Helvetica;fontColor=default;" parent="1" vertex="1">
          <mxGeometry x="650" y="430" width="40" height="30" as="geometry" />
        </mxCell>
        <mxCell id="UVocr931k_2hGVf8hIcp-111" value="&lt;font color=&quot;#42ff75&quot;&gt;Yes&lt;/font&gt;" style="text;html=1;align=center;verticalAlign=middle;resizable=0;points=[];autosize=1;strokeColor=none;fillColor=none;fontSize=11;fontFamily=Helvetica;fontColor=default;" parent="1" vertex="1">
          <mxGeometry x="480" y="490" width="40" height="30" as="geometry" />
        </mxCell>
        <mxCell id="UVocr931k_2hGVf8hIcp-119" value="&lt;font color=&quot;#ff6b6b&quot;&gt;No&lt;/font&gt;" style="text;html=1;align=center;verticalAlign=middle;resizable=0;points=[];autosize=1;strokeColor=none;fillColor=none;fontSize=11;fontFamily=Helvetica;fontColor=default;" parent="1" vertex="1">
          <mxGeometry x="450" y="600" width="40" height="30" as="geometry" />
        </mxCell>
        <mxCell id="UVocr931k_2hGVf8hIcp-120" value="&lt;font color=&quot;#42ff75&quot;&gt;Yes&lt;/font&gt;" style="text;html=1;align=center;verticalAlign=middle;resizable=0;points=[];autosize=1;strokeColor=none;fillColor=none;fontSize=11;fontFamily=Helvetica;fontColor=default;" parent="1" vertex="1">
          <mxGeometry x="510" y="600" width="40" height="30" as="geometry" />
        </mxCell>
        <mxCell id="UVocr931k_2hGVf8hIcp-144" style="edgeStyle=orthogonalEdgeStyle;shape=connector;rounded=0;orthogonalLoop=1;jettySize=auto;html=1;entryX=0.414;entryY=0.025;entryDx=0;entryDy=0;entryPerimeter=0;labelBackgroundColor=default;strokeColor=#FF3333;strokeWidth=2;align=center;verticalAlign=bottom;fontFamily=Helvetica;fontSize=11;fontColor=default;endArrow=classic;endFill=1;endSize=8;" parent="1" source="UVocr931k_2hGVf8hIcp-30" target="UVocr931k_2hGVf8hIcp-70" edge="1">
          <mxGeometry relative="1" as="geometry">
            <Array as="points">
              <mxPoint x="490" y="630" />
              <mxPoint x="50" y="630" />
              <mxPoint x="50" y="681" />
            </Array>
          </mxGeometry>
        </mxCell>
        <mxCell id="UVocr931k_2hGVf8hIcp-130" style="edgeStyle=orthogonalEdgeStyle;shape=connector;rounded=0;orthogonalLoop=1;jettySize=auto;html=1;labelBackgroundColor=default;strokeColor=#FF3333;strokeWidth=2;align=center;verticalAlign=bottom;fontFamily=Helvetica;fontSize=11;fontColor=default;endArrow=classic;endFill=1;endSize=8;" parent="1" edge="1">
          <mxGeometry relative="1" as="geometry">
            <mxPoint x="490.00448275862095" y="600" as="sourcePoint" />
            <mxPoint x="690" y="680" as="targetPoint" />
            <Array as="points">
              <mxPoint x="490" y="630" />
              <mxPoint x="690" y="630" />
              <mxPoint x="690" y="680" />
            </Array>
          </mxGeometry>
        </mxCell>
        <mxCell id="UVocr931k_2hGVf8hIcp-218" value="" style="edgeStyle=orthogonalEdgeStyle;shape=connector;rounded=0;orthogonalLoop=1;jettySize=auto;html=1;labelBackgroundColor=default;strokeColor=#FFC53D;strokeWidth=2;align=center;verticalAlign=bottom;fontFamily=Helvetica;fontSize=11;fontColor=default;endArrow=classic;endFill=1;endSize=8;exitX=0.5;exitY=1;exitDx=0;exitDy=0;" parent="1" source="UVocr931k_2hGVf8hIcp-148" target="UVocr931k_2hGVf8hIcp-217" edge="1">
          <mxGeometry relative="1" as="geometry">
            <mxPoint x="180.00000000000045" y="1120" as="sourcePoint" />
            <Array as="points">
              <mxPoint x="60" y="1160" />
              <mxPoint x="500" y="1160" />
            </Array>
          </mxGeometry>
        </mxCell>
        <mxCell id="UVocr931k_2hGVf8hIcp-279" value="" style="edgeStyle=orthogonalEdgeStyle;shape=connector;rounded=0;orthogonalLoop=1;jettySize=auto;html=1;labelBackgroundColor=default;strokeColor=#FFC53D;strokeWidth=2;align=center;verticalAlign=bottom;fontFamily=Helvetica;fontSize=11;fontColor=default;endArrow=classic;endFill=1;endSize=8;" parent="1" target="UVocr931k_2hGVf8hIcp-278" edge="1">
          <mxGeometry relative="1" as="geometry">
            <mxPoint x="60.000000000000455" y="1120" as="sourcePoint" />
            <Array as="points">
              <mxPoint x="60" y="1160" />
              <mxPoint x="-200" y="1160" />
            </Array>
          </mxGeometry>
        </mxCell>
        <mxCell id="UVocr931k_2hGVf8hIcp-322" value="" style="edgeStyle=orthogonalEdgeStyle;shape=connector;rounded=0;orthogonalLoop=1;jettySize=auto;html=1;labelBackgroundColor=default;strokeColor=#FFC53D;strokeWidth=2;align=center;verticalAlign=bottom;fontFamily=Helvetica;fontSize=11;fontColor=default;endArrow=classic;endFill=1;endSize=8;exitX=0.5;exitY=1;exitDx=0;exitDy=0;" parent="1" source="UVocr931k_2hGVf8hIcp-148" target="UVocr931k_2hGVf8hIcp-312" edge="1">
          <mxGeometry relative="1" as="geometry">
            <mxPoint x="60.000000000000455" y="1120" as="sourcePoint" />
          </mxGeometry>
        </mxCell>
        <mxCell id="UVocr931k_2hGVf8hIcp-365" style="edgeStyle=orthogonalEdgeStyle;shape=connector;rounded=0;orthogonalLoop=1;jettySize=auto;html=1;entryX=1;entryY=0.5;entryDx=0;entryDy=0;labelBackgroundColor=default;strokeColor=#FFC53D;strokeWidth=2;align=center;verticalAlign=bottom;fontFamily=Helvetica;fontSize=11;fontColor=default;endArrow=classic;endFill=1;endSize=8;" parent="1" source="UVocr931k_2hGVf8hIcp-148" target="UVocr931k_2hGVf8hIcp-329" edge="1">
          <mxGeometry relative="1" as="geometry">
            <Array as="points">
              <mxPoint x="-40" y="1070" />
              <mxPoint x="-40" y="1100" />
            </Array>
          </mxGeometry>
        </mxCell>
        <mxCell id="UVocr931k_2hGVf8hIcp-148" value="User Timeline" style="rounded=1;whiteSpace=wrap;html=1;arcSize=40;fontColor=#000000;fillColor=#ffffc0;strokeColor=#FFA914;gradientColor=#F0C686;fontFamily=Helvetica;fontSize=11;" parent="1" vertex="1">
          <mxGeometry y="1040" width="120" height="40" as="geometry" />
        </mxCell>
        <mxCell id="UVocr931k_2hGVf8hIcp-156" style="edgeStyle=orthogonalEdgeStyle;shape=connector;rounded=0;orthogonalLoop=1;jettySize=auto;html=1;labelBackgroundColor=default;strokeColor=#FF3333;strokeWidth=2;align=center;verticalAlign=bottom;fontFamily=Helvetica;fontSize=11;fontColor=default;endArrow=classic;endFill=1;endSize=8;entryX=0;entryY=0.5;entryDx=0;entryDy=0;" parent="1" source="UVocr931k_2hGVf8hIcp-152" target="UVocr931k_2hGVf8hIcp-42" edge="1">
          <mxGeometry relative="1" as="geometry">
            <Array as="points">
              <mxPoint x="-60" y="820" />
            </Array>
          </mxGeometry>
        </mxCell>
        <mxCell id="UVocr931k_2hGVf8hIcp-152" value="&lt;font color=&quot;#ffffff&quot;&gt;&amp;nbsp;Warning&lt;br&gt;Message&lt;br&gt;&lt;/font&gt;" style="rounded=1;whiteSpace=wrap;html=1;arcSize=40;fontColor=#000000;fillColor=none;strokeColor=#FFFFFF;gradientColor=#1C3F40;fontFamily=Helvetica;fontSize=11;" parent="1" vertex="1">
          <mxGeometry x="-100" y="880" width="80" height="40" as="geometry" />
        </mxCell>
        <mxCell id="UVocr931k_2hGVf8hIcp-157" value="" style="edgeStyle=orthogonalEdgeStyle;shape=connector;rounded=0;orthogonalLoop=1;jettySize=auto;html=1;labelBackgroundColor=default;strokeColor=#FFC53D;strokeWidth=2;align=center;verticalAlign=bottom;fontFamily=Helvetica;fontSize=11;fontColor=default;endArrow=classic;endSize=8;endFill=1;" parent="1" source="UVocr931k_2hGVf8hIcp-158" target="UVocr931k_2hGVf8hIcp-160" edge="1">
          <mxGeometry relative="1" as="geometry" />
        </mxCell>
        <mxCell id="UVocr931k_2hGVf8hIcp-158" value="&lt;font color=&quot;#ffffff&quot;&gt;Type cheep&lt;/font&gt;" style="rounded=1;whiteSpace=wrap;html=1;arcSize=40;fontColor=#000000;fillColor=#4ED4D0;strokeColor=#1CD4C2;gradientColor=#1C3F40;fontFamily=Helvetica;fontSize=11;" parent="1" vertex="1">
          <mxGeometry x="440" y="800" width="120" height="40" as="geometry" />
        </mxCell>
        <mxCell id="UVocr931k_2hGVf8hIcp-159" value="" style="edgeStyle=orthogonalEdgeStyle;shape=connector;rounded=0;orthogonalLoop=1;jettySize=auto;html=1;labelBackgroundColor=default;strokeColor=#FFC53D;strokeWidth=2;align=center;verticalAlign=bottom;fontFamily=Helvetica;fontSize=11;fontColor=default;endArrow=classic;endSize=8;endFill=1;" parent="1" source="UVocr931k_2hGVf8hIcp-160" target="UVocr931k_2hGVf8hIcp-163" edge="1">
          <mxGeometry relative="1" as="geometry">
            <Array as="points">
              <mxPoint x="500" y="940" />
              <mxPoint x="500" y="940" />
            </Array>
          </mxGeometry>
        </mxCell>
        <mxCell id="UVocr931k_2hGVf8hIcp-160" value="&lt;font color=&quot;#ffffff&quot;&gt;Share/Cheep!&lt;/font&gt;" style="rounded=1;whiteSpace=wrap;html=1;arcSize=40;fontColor=#000000;fillColor=#4ED4D0;strokeColor=#1CD4C2;gradientColor=#1C3F40;fontFamily=Helvetica;fontSize=11;" parent="1" vertex="1">
          <mxGeometry x="440" y="880" width="120" height="40" as="geometry" />
        </mxCell>
        <mxCell id="UVocr931k_2hGVf8hIcp-161" value="" style="edgeStyle=orthogonalEdgeStyle;shape=connector;rounded=0;orthogonalLoop=1;jettySize=auto;html=1;labelBackgroundColor=default;strokeColor=#42FF75;strokeWidth=2;align=center;verticalAlign=bottom;fontFamily=Helvetica;fontSize=11;fontColor=default;endArrow=classic;endFill=1;endSize=8;" parent="1" source="UVocr931k_2hGVf8hIcp-163" target="UVocr931k_2hGVf8hIcp-165" edge="1">
          <mxGeometry relative="1" as="geometry">
            <Array as="points">
              <mxPoint x="500" y="1020" />
              <mxPoint x="500" y="1020" />
            </Array>
          </mxGeometry>
        </mxCell>
        <mxCell id="UVocr931k_2hGVf8hIcp-162" style="edgeStyle=orthogonalEdgeStyle;shape=connector;rounded=0;orthogonalLoop=1;jettySize=auto;html=1;entryX=0.5;entryY=1;entryDx=0;entryDy=0;labelBackgroundColor=default;strokeColor=#FF3333;strokeWidth=2;align=center;verticalAlign=bottom;fontFamily=Helvetica;fontSize=11;fontColor=default;endArrow=classic;endFill=1;endSize=8;" parent="1" source="UVocr931k_2hGVf8hIcp-163" target="UVocr931k_2hGVf8hIcp-167" edge="1">
          <mxGeometry relative="1" as="geometry" />
        </mxCell>
        <mxCell id="UVocr931k_2hGVf8hIcp-163" value="Valid?" style="shape=hexagon;perimeter=hexagonPerimeter2;whiteSpace=wrap;html=1;fixedSize=1;fontFamily=Helvetica;fontSize=12;fontColor=#ffffff;gradientColor=#303030;fillColor=#263F63;strokeColor=#006EAF;rounded=0;" parent="1" vertex="1">
          <mxGeometry x="450" y="960" width="100" height="40" as="geometry" />
        </mxCell>
        <mxCell id="UVocr931k_2hGVf8hIcp-164" value="" style="edgeStyle=orthogonalEdgeStyle;shape=connector;rounded=0;orthogonalLoop=1;jettySize=auto;html=1;labelBackgroundColor=default;strokeColor=#FFC53D;strokeWidth=2;align=center;verticalAlign=bottom;fontFamily=Helvetica;fontSize=11;fontColor=default;endArrow=classic;endFill=1;endSize=8;" parent="1" target="UVocr931k_2hGVf8hIcp-158" edge="1">
          <mxGeometry relative="1" as="geometry">
            <mxPoint x="500" y="720" as="sourcePoint" />
          </mxGeometry>
        </mxCell>
        <mxCell id="UVocr931k_2hGVf8hIcp-305" style="edgeStyle=orthogonalEdgeStyle;shape=connector;rounded=0;orthogonalLoop=1;jettySize=auto;html=1;entryX=0.5;entryY=0;entryDx=0;entryDy=0;labelBackgroundColor=default;strokeColor=#FFC53D;strokeWidth=2;align=center;verticalAlign=bottom;fontFamily=Helvetica;fontSize=11;fontColor=default;endArrow=classic;endFill=1;endSize=8;" parent="1" target="UVocr931k_2hGVf8hIcp-217" edge="1">
          <mxGeometry relative="1" as="geometry">
            <mxPoint x="500.0000000000009" y="1120" as="sourcePoint" />
            <Array as="points">
              <mxPoint x="500" y="1180" />
              <mxPoint x="500" y="1180" />
            </Array>
          </mxGeometry>
        </mxCell>
        <mxCell id="UVocr931k_2hGVf8hIcp-323" style="edgeStyle=orthogonalEdgeStyle;shape=connector;rounded=0;orthogonalLoop=1;jettySize=auto;html=1;entryX=0.5;entryY=0;entryDx=0;entryDy=0;labelBackgroundColor=default;strokeColor=#FFC53D;strokeWidth=2;align=center;verticalAlign=bottom;fontFamily=Helvetica;fontSize=11;fontColor=default;endArrow=classic;endFill=1;endSize=8;" parent="1" target="UVocr931k_2hGVf8hIcp-312" edge="1">
          <mxGeometry relative="1" as="geometry">
            <mxPoint x="500.0000000000009" y="1120" as="sourcePoint" />
            <Array as="points">
              <mxPoint x="500" y="1160" />
              <mxPoint x="60" y="1160" />
            </Array>
          </mxGeometry>
        </mxCell>
        <mxCell id="UVocr931k_2hGVf8hIcp-324" style="edgeStyle=orthogonalEdgeStyle;shape=connector;rounded=0;orthogonalLoop=1;jettySize=auto;html=1;entryX=0.5;entryY=0;entryDx=0;entryDy=0;labelBackgroundColor=default;strokeColor=#FFC53D;strokeWidth=2;align=center;verticalAlign=bottom;fontFamily=Helvetica;fontSize=11;fontColor=default;endArrow=classic;endFill=1;endSize=8;exitX=0.5;exitY=1;exitDx=0;exitDy=0;" parent="1" source="UVocr931k_2hGVf8hIcp-165" target="UVocr931k_2hGVf8hIcp-278" edge="1">
          <mxGeometry relative="1" as="geometry">
            <mxPoint x="500.0000000000009" y="1120" as="sourcePoint" />
            <Array as="points">
              <mxPoint x="500" y="1160" />
              <mxPoint x="-200" y="1160" />
            </Array>
          </mxGeometry>
        </mxCell>
        <mxCell id="UVocr931k_2hGVf8hIcp-165" value="Public Timeline&lt;br&gt;(authenticated)" style="rounded=1;whiteSpace=wrap;html=1;arcSize=40;fontColor=#000000;fillColor=#ffffc0;strokeColor=#FFA914;gradientColor=#F0C686;fontFamily=Helvetica;fontSize=11;" parent="1" vertex="1">
          <mxGeometry x="440" y="1040" width="120" height="40" as="geometry" />
        </mxCell>
        <mxCell id="UVocr931k_2hGVf8hIcp-166" style="edgeStyle=orthogonalEdgeStyle;shape=connector;rounded=0;orthogonalLoop=1;jettySize=auto;html=1;labelBackgroundColor=default;strokeColor=#FF3333;strokeWidth=2;align=center;verticalAlign=bottom;fontFamily=Helvetica;fontSize=11;fontColor=default;endArrow=classic;endFill=1;endSize=8;entryX=0;entryY=0.5;entryDx=0;entryDy=0;" parent="1" source="UVocr931k_2hGVf8hIcp-167" target="UVocr931k_2hGVf8hIcp-158" edge="1">
          <mxGeometry relative="1" as="geometry">
            <mxPoint x="440" y="740" as="targetPoint" />
            <Array as="points">
              <mxPoint x="380" y="820" />
            </Array>
          </mxGeometry>
        </mxCell>
        <mxCell id="UVocr931k_2hGVf8hIcp-167" value="&lt;font color=&quot;#ffffff&quot;&gt;Warning Message&lt;br&gt;&lt;/font&gt;" style="rounded=1;whiteSpace=wrap;html=1;arcSize=40;fontColor=#000000;fillColor=none;strokeColor=#FFFFFF;gradientColor=#1C3F40;fontFamily=Helvetica;fontSize=11;" parent="1" vertex="1">
          <mxGeometry x="340" y="880" width="80" height="40" as="geometry" />
        </mxCell>
        <mxCell id="UVocr931k_2hGVf8hIcp-235" style="edgeStyle=orthogonalEdgeStyle;shape=connector;rounded=0;orthogonalLoop=1;jettySize=auto;html=1;labelBackgroundColor=default;strokeColor=#FFC53D;strokeWidth=2;align=center;verticalAlign=bottom;fontFamily=Helvetica;fontSize=11;fontColor=default;endArrow=classic;endFill=1;endSize=8;" parent="1" source="UVocr931k_2hGVf8hIcp-168" target="UVocr931k_2hGVf8hIcp-174" edge="1">
          <mxGeometry relative="1" as="geometry" />
        </mxCell>
        <mxCell id="UVocr931k_2hGVf8hIcp-168" value="&lt;font color=&quot;#ffffff&quot;&gt;Seed DB1&lt;/font&gt;" style="rounded=1;whiteSpace=wrap;html=1;arcSize=40;fontColor=#000000;fillColor=#4ED4D0;strokeColor=#1CD4C2;gradientColor=#1C3F40;fontFamily=Helvetica;fontSize=11;" parent="1" vertex="1">
          <mxGeometry x="720" y="800" width="80" height="40" as="geometry" />
        </mxCell>
        <mxCell id="UVocr931k_2hGVf8hIcp-242" value="" style="edgeStyle=orthogonalEdgeStyle;shape=connector;rounded=0;orthogonalLoop=1;jettySize=auto;html=1;labelBackgroundColor=default;strokeColor=#FFC53D;strokeWidth=2;align=center;verticalAlign=bottom;fontFamily=Helvetica;fontSize=11;fontColor=default;endArrow=classic;endFill=1;endSize=8;" parent="1" source="UVocr931k_2hGVf8hIcp-169" target="UVocr931k_2hGVf8hIcp-236" edge="1">
          <mxGeometry relative="1" as="geometry" />
        </mxCell>
        <mxCell id="UVocr931k_2hGVf8hIcp-169" value="&lt;font color=&quot;#ffffff&quot;&gt;Seed DB2&lt;/font&gt;" style="rounded=1;whiteSpace=wrap;html=1;arcSize=40;fontColor=#000000;fillColor=#4ED4D0;strokeColor=#1CD4C2;gradientColor=#1C3F40;fontFamily=Helvetica;fontSize=11;" parent="1" vertex="1">
          <mxGeometry x="820" y="800" width="80" height="40" as="geometry" />
        </mxCell>
        <mxCell id="UVocr931k_2hGVf8hIcp-243" value="" style="edgeStyle=orthogonalEdgeStyle;shape=connector;rounded=0;orthogonalLoop=1;jettySize=auto;html=1;labelBackgroundColor=default;strokeColor=#FFC53D;strokeWidth=2;align=center;verticalAlign=bottom;fontFamily=Helvetica;fontSize=11;fontColor=default;endArrow=classic;endFill=1;endSize=8;" parent="1" source="UVocr931k_2hGVf8hIcp-170" target="UVocr931k_2hGVf8hIcp-237" edge="1">
          <mxGeometry relative="1" as="geometry" />
        </mxCell>
        <mxCell id="UVocr931k_2hGVf8hIcp-170" value="&lt;font color=&quot;#ffffff&quot;&gt;Clear DB&lt;/font&gt;" style="rounded=1;whiteSpace=wrap;html=1;arcSize=40;fontColor=#000000;fillColor=#4ED4D0;strokeColor=#1CD4C2;gradientColor=#1C3F40;fontFamily=Helvetica;fontSize=11;" parent="1" vertex="1">
          <mxGeometry x="920" y="800" width="80" height="40" as="geometry" />
        </mxCell>
        <mxCell id="UVocr931k_2hGVf8hIcp-178" style="edgeStyle=orthogonalEdgeStyle;shape=connector;rounded=0;orthogonalLoop=1;jettySize=auto;html=1;labelBackgroundColor=default;strokeColor=#FFC53D;strokeWidth=2;align=center;verticalAlign=bottom;fontFamily=Helvetica;fontSize=11;fontColor=default;endArrow=classic;endFill=1;endSize=8;" parent="1" source="UVocr931k_2hGVf8hIcp-174" target="UVocr931k_2hGVf8hIcp-21" edge="1">
          <mxGeometry relative="1" as="geometry">
            <Array as="points">
              <mxPoint x="760" y="960" />
              <mxPoint x="600" y="960" />
              <mxPoint x="600" y="700" />
            </Array>
          </mxGeometry>
        </mxCell>
        <mxCell id="UVocr931k_2hGVf8hIcp-174" value="&lt;font color=&quot;#ffffff&quot;&gt;New DB1&lt;/font&gt;" style="rounded=1;whiteSpace=wrap;html=1;arcSize=40;fontColor=#000000;fillColor=none;strokeColor=#FFFFFF;gradientColor=#1C3F40;fontFamily=Helvetica;fontSize=11;" parent="1" vertex="1">
          <mxGeometry x="720" y="880" width="80" height="40" as="geometry" />
        </mxCell>
        <mxCell id="86_-Uz71LiWEpe0kazTY-31" style="edgeStyle=orthogonalEdgeStyle;shape=connector;rounded=0;orthogonalLoop=1;jettySize=auto;html=1;entryX=0.5;entryY=0;entryDx=0;entryDy=0;labelBackgroundColor=default;strokeColor=#FFC53D;strokeWidth=2;align=center;verticalAlign=bottom;fontFamily=Helvetica;fontSize=11;fontColor=default;endArrow=classic;endFill=1;endSize=8;" parent="1" source="UVocr931k_2hGVf8hIcp-179" target="UVocr931k_2hGVf8hIcp-198" edge="1">
          <mxGeometry relative="1" as="geometry" />
        </mxCell>
        <mxCell id="UVocr931k_2hGVf8hIcp-179" value="&lt;font color=&quot;#ffffff&quot;&gt;Forget Me&lt;/font&gt;" style="rounded=1;whiteSpace=wrap;html=1;arcSize=40;fontColor=#000000;fillColor=#4ED4D0;strokeColor=#1CD4C2;gradientColor=#1C3F40;fontFamily=Helvetica;fontSize=11;" parent="1" vertex="1">
          <mxGeometry x="-320" y="800" width="80" height="40" as="geometry" />
        </mxCell>
        <mxCell id="UVocr931k_2hGVf8hIcp-195" value="" style="edgeStyle=orthogonalEdgeStyle;shape=connector;rounded=0;orthogonalLoop=1;jettySize=auto;html=1;labelBackgroundColor=default;strokeColor=#FFC53D;strokeWidth=2;align=center;verticalAlign=bottom;fontFamily=Helvetica;fontSize=11;fontColor=default;endArrow=classic;endFill=1;endSize=8;" parent="1" source="UVocr931k_2hGVf8hIcp-180" target="UVocr931k_2hGVf8hIcp-194" edge="1">
          <mxGeometry relative="1" as="geometry" />
        </mxCell>
        <mxCell id="UVocr931k_2hGVf8hIcp-180" value="&lt;font color=&quot;#ffffff&quot;&gt;Download Data&lt;/font&gt;" style="rounded=1;whiteSpace=wrap;html=1;arcSize=40;fontColor=#000000;fillColor=#4ED4D0;strokeColor=#1CD4C2;gradientColor=#1C3F40;fontFamily=Helvetica;fontSize=11;" parent="1" vertex="1">
          <mxGeometry x="-440" y="800" width="80" height="40" as="geometry" />
        </mxCell>
        <mxCell id="UVocr931k_2hGVf8hIcp-186" value="&lt;font color=&quot;#ff6b6b&quot;&gt;No&lt;/font&gt;" style="text;html=1;align=center;verticalAlign=middle;resizable=0;points=[];autosize=1;strokeColor=none;fillColor=none;fontSize=11;fontFamily=Helvetica;fontColor=default;" parent="1" vertex="1">
          <mxGeometry x="410" y="950" width="40" height="30" as="geometry" />
        </mxCell>
        <mxCell id="UVocr931k_2hGVf8hIcp-187" value="&lt;font color=&quot;#ff6b6b&quot;&gt;No&lt;/font&gt;" style="text;html=1;align=center;verticalAlign=middle;resizable=0;points=[];autosize=1;strokeColor=none;fillColor=none;fontSize=11;fontFamily=Helvetica;fontColor=default;" parent="1" vertex="1">
          <mxGeometry x="-30" y="950" width="40" height="30" as="geometry" />
        </mxCell>
        <mxCell id="UVocr931k_2hGVf8hIcp-188" value="&lt;font color=&quot;#42ff75&quot;&gt;Yes&lt;/font&gt;" style="text;html=1;align=center;verticalAlign=middle;resizable=0;points=[];autosize=1;strokeColor=none;fillColor=none;fontSize=11;fontFamily=Helvetica;fontColor=default;" parent="1" vertex="1">
          <mxGeometry x="500" y="1000" width="40" height="30" as="geometry" />
        </mxCell>
        <mxCell id="UVocr931k_2hGVf8hIcp-189" value="&lt;font color=&quot;#42ff75&quot;&gt;Yes&lt;/font&gt;" style="text;html=1;align=center;verticalAlign=middle;resizable=0;points=[];autosize=1;strokeColor=none;fillColor=none;fontSize=11;fontFamily=Helvetica;fontColor=default;" parent="1" vertex="1">
          <mxGeometry x="60" y="1000" width="40" height="30" as="geometry" />
        </mxCell>
        <mxCell id="UVocr931k_2hGVf8hIcp-197" style="edgeStyle=orthogonalEdgeStyle;shape=connector;rounded=0;orthogonalLoop=1;jettySize=auto;html=1;labelBackgroundColor=default;strokeColor=#FFC53D;strokeWidth=2;align=center;verticalAlign=bottom;fontFamily=Helvetica;fontSize=11;fontColor=default;endArrow=classic;endFill=1;endSize=8;" parent="1" source="UVocr931k_2hGVf8hIcp-194" target="UVocr931k_2hGVf8hIcp-180" edge="1">
          <mxGeometry relative="1" as="geometry">
            <Array as="points">
              <mxPoint x="-460" y="900" />
              <mxPoint x="-460" y="820" />
            </Array>
          </mxGeometry>
        </mxCell>
        <mxCell id="UVocr931k_2hGVf8hIcp-194" value="&lt;font color=&quot;#ffffff&quot;&gt;Save/Cancel&lt;br&gt;.txt file&lt;br&gt;&lt;/font&gt;" style="rounded=1;whiteSpace=wrap;html=1;arcSize=40;fontColor=#000000;fillColor=none;strokeColor=#FFFFFF;gradientColor=#1C3F40;fontFamily=Helvetica;fontSize=11;" parent="1" vertex="1">
          <mxGeometry x="-440" y="880" width="80" height="40" as="geometry" />
        </mxCell>
        <mxCell id="UVocr931k_2hGVf8hIcp-200" value="" style="group;fontFamily=Helvetica;fontSize=11;fontColor=default;" parent="1" vertex="1" connectable="0">
          <mxGeometry x="-300" y="880" width="40" height="40" as="geometry" />
        </mxCell>
        <mxCell id="UVocr931k_2hGVf8hIcp-198" value="" style="ellipse;whiteSpace=wrap;html=1;aspect=fixed;gradientColor=none;shadow=1;fillColor=#FFFFFF;fontFamily=Helvetica;fontSize=11;fontColor=default;" parent="UVocr931k_2hGVf8hIcp-200" vertex="1">
          <mxGeometry width="40" height="40" as="geometry" />
        </mxCell>
        <mxCell id="UVocr931k_2hGVf8hIcp-199" value="" style="ellipse;whiteSpace=wrap;html=1;aspect=fixed;gradientColor=#404040;shadow=1;fontFamily=Helvetica;fontSize=11;fontColor=default;" parent="UVocr931k_2hGVf8hIcp-200" vertex="1">
          <mxGeometry x="10" y="10" width="20" height="20" as="geometry" />
        </mxCell>
        <mxCell id="UVocr931k_2hGVf8hIcp-203" value="" style="group;fontFamily=Helvetica;fontSize=11;fontColor=default;" parent="1" vertex="1" connectable="0">
          <mxGeometry x="480" y="1280" width="40" height="40" as="geometry" />
        </mxCell>
        <mxCell id="UVocr931k_2hGVf8hIcp-204" value="" style="ellipse;whiteSpace=wrap;html=1;aspect=fixed;gradientColor=none;shadow=1;fillColor=#FFFFFF;fontFamily=Helvetica;fontSize=11;fontColor=default;" parent="UVocr931k_2hGVf8hIcp-203" vertex="1">
          <mxGeometry width="40" height="40" as="geometry" />
        </mxCell>
        <mxCell id="UVocr931k_2hGVf8hIcp-205" value="" style="ellipse;whiteSpace=wrap;html=1;aspect=fixed;gradientColor=#404040;shadow=1;fontFamily=Helvetica;fontSize=11;fontColor=default;" parent="UVocr931k_2hGVf8hIcp-203" vertex="1">
          <mxGeometry x="10" y="10" width="20" height="20" as="geometry" />
        </mxCell>
        <mxCell id="UVocr931k_2hGVf8hIcp-321" style="edgeStyle=orthogonalEdgeStyle;shape=connector;rounded=0;orthogonalLoop=1;jettySize=auto;html=1;entryX=0.5;entryY=0;entryDx=0;entryDy=0;labelBackgroundColor=default;strokeColor=#FFC53D;strokeWidth=2;align=center;verticalAlign=bottom;fontFamily=Helvetica;fontSize=11;fontColor=default;endArrow=classic;endFill=1;endSize=8;" parent="1" source="UVocr931k_2hGVf8hIcp-217" target="UVocr931k_2hGVf8hIcp-204" edge="1">
          <mxGeometry relative="1" as="geometry" />
        </mxCell>
        <mxCell id="UVocr931k_2hGVf8hIcp-217" value="&lt;font color=&quot;#ffffff&quot;&gt;Sign Out&lt;/font&gt;" style="rounded=1;whiteSpace=wrap;html=1;arcSize=40;fontColor=#000000;fillColor=#4ED4D0;strokeColor=#1CD4C2;gradientColor=#1C3F40;fontFamily=Helvetica;fontSize=11;" parent="1" vertex="1">
          <mxGeometry x="470" y="1200" width="60" height="40" as="geometry" />
        </mxCell>
        <mxCell id="UVocr931k_2hGVf8hIcp-238" style="edgeStyle=orthogonalEdgeStyle;shape=connector;rounded=0;orthogonalLoop=1;jettySize=auto;html=1;labelBackgroundColor=default;strokeColor=#FFC53D;strokeWidth=2;align=center;verticalAlign=bottom;fontFamily=Helvetica;fontSize=11;fontColor=default;endArrow=classic;endFill=1;endSize=8;" parent="1" source="UVocr931k_2hGVf8hIcp-236" target="UVocr931k_2hGVf8hIcp-21" edge="1">
          <mxGeometry relative="1" as="geometry">
            <Array as="points">
              <mxPoint x="860" y="960" />
              <mxPoint x="600" y="960" />
              <mxPoint x="600" y="700" />
            </Array>
          </mxGeometry>
        </mxCell>
        <mxCell id="UVocr931k_2hGVf8hIcp-236" value="&lt;font color=&quot;#ffffff&quot;&gt;New DB2&lt;/font&gt;" style="rounded=1;whiteSpace=wrap;html=1;arcSize=40;fontColor=#000000;fillColor=none;strokeColor=#FFFFFF;gradientColor=#1C3F40;fontFamily=Helvetica;fontSize=11;" parent="1" vertex="1">
          <mxGeometry x="820" y="880" width="80" height="40" as="geometry" />
        </mxCell>
        <mxCell id="UVocr931k_2hGVf8hIcp-239" style="edgeStyle=orthogonalEdgeStyle;shape=connector;rounded=0;orthogonalLoop=1;jettySize=auto;html=1;labelBackgroundColor=default;strokeColor=#FFC53D;strokeWidth=2;align=center;verticalAlign=bottom;fontFamily=Helvetica;fontSize=11;fontColor=default;endArrow=classic;endFill=1;endSize=8;" parent="1" source="UVocr931k_2hGVf8hIcp-237" target="UVocr931k_2hGVf8hIcp-21" edge="1">
          <mxGeometry relative="1" as="geometry">
            <Array as="points">
              <mxPoint x="960" y="960" />
              <mxPoint x="600" y="960" />
              <mxPoint x="600" y="700" />
            </Array>
          </mxGeometry>
        </mxCell>
        <mxCell id="UVocr931k_2hGVf8hIcp-237" value="&lt;font color=&quot;#ffffff&quot;&gt;Empty DB&lt;/font&gt;" style="rounded=1;whiteSpace=wrap;html=1;arcSize=40;fontColor=#000000;fillColor=none;strokeColor=#FFFFFF;gradientColor=#1C3F40;fontFamily=Helvetica;fontSize=11;" parent="1" vertex="1">
          <mxGeometry x="920" y="880" width="80" height="40" as="geometry" />
        </mxCell>
        <mxCell id="UVocr931k_2hGVf8hIcp-270" style="shape=connector;rounded=0;orthogonalLoop=1;jettySize=auto;html=1;labelBackgroundColor=default;strokeColor=#FF3333;strokeWidth=2;align=center;verticalAlign=bottom;fontFamily=Helvetica;fontSize=11;fontColor=default;endArrow=classic;endSize=8;endFill=1;" parent="1" edge="1">
          <mxGeometry relative="1" as="geometry">
            <mxPoint x="379.65999999999997" y="870" as="sourcePoint" />
            <mxPoint x="379.65999999999997" y="840" as="targetPoint" />
          </mxGeometry>
        </mxCell>
        <mxCell id="UVocr931k_2hGVf8hIcp-271" style="shape=connector;rounded=0;orthogonalLoop=1;jettySize=auto;html=1;labelBackgroundColor=default;strokeColor=#FF3333;strokeWidth=2;align=center;verticalAlign=bottom;fontFamily=Helvetica;fontSize=11;fontColor=default;endArrow=classic;endSize=8;endFill=1;" parent="1" edge="1">
          <mxGeometry relative="1" as="geometry">
            <mxPoint x="-60.34" y="870" as="sourcePoint" />
            <mxPoint x="-60.34" y="840" as="targetPoint" />
          </mxGeometry>
        </mxCell>
        <mxCell id="UVocr931k_2hGVf8hIcp-273" style="shape=connector;rounded=0;orthogonalLoop=1;jettySize=auto;html=1;labelBackgroundColor=default;strokeColor=#FF3333;strokeWidth=2;align=center;verticalAlign=bottom;fontFamily=Helvetica;fontSize=11;fontColor=default;endArrow=classic;endSize=8;endFill=1;" parent="1" edge="1">
          <mxGeometry relative="1" as="geometry">
            <mxPoint y="980" as="sourcePoint" />
            <mxPoint x="-30" y="980" as="targetPoint" />
          </mxGeometry>
        </mxCell>
        <mxCell id="UVocr931k_2hGVf8hIcp-274" style="shape=connector;rounded=0;orthogonalLoop=1;jettySize=auto;html=1;labelBackgroundColor=default;strokeColor=#FF3333;strokeWidth=2;align=center;verticalAlign=bottom;fontFamily=Helvetica;fontSize=11;fontColor=default;endArrow=classic;endSize=8;endFill=1;" parent="1" edge="1">
          <mxGeometry relative="1" as="geometry">
            <mxPoint x="440" y="980" as="sourcePoint" />
            <mxPoint x="410" y="980" as="targetPoint" />
            <Array as="points">
              <mxPoint x="410" y="980" />
            </Array>
          </mxGeometry>
        </mxCell>
        <mxCell id="UVocr931k_2hGVf8hIcp-297" style="edgeStyle=orthogonalEdgeStyle;shape=connector;rounded=0;orthogonalLoop=1;jettySize=auto;html=1;labelBackgroundColor=default;strokeColor=#42FF75;strokeWidth=2;align=center;verticalAlign=bottom;fontFamily=Helvetica;fontSize=11;fontColor=default;endArrow=classic;endFill=1;endSize=8;" parent="1" source="UVocr931k_2hGVf8hIcp-276" target="UVocr931k_2hGVf8hIcp-284" edge="1">
          <mxGeometry relative="1" as="geometry">
            <Array as="points">
              <mxPoint x="-210" y="1360" />
              <mxPoint x="-260" y="1360" />
            </Array>
          </mxGeometry>
        </mxCell>
        <mxCell id="UVocr931k_2hGVf8hIcp-298" style="edgeStyle=orthogonalEdgeStyle;shape=connector;rounded=0;orthogonalLoop=1;jettySize=auto;html=1;labelBackgroundColor=default;strokeColor=#FF3333;strokeWidth=2;align=center;verticalAlign=bottom;fontFamily=Helvetica;fontSize=11;fontColor=default;endArrow=classic;endFill=1;endSize=8;" parent="1" source="UVocr931k_2hGVf8hIcp-276" target="UVocr931k_2hGVf8hIcp-285" edge="1">
          <mxGeometry relative="1" as="geometry">
            <Array as="points">
              <mxPoint x="-190" y="1360" />
              <mxPoint x="-140" y="1360" />
            </Array>
          </mxGeometry>
        </mxCell>
        <mxCell id="UVocr931k_2hGVf8hIcp-276" value="Liked?" style="shape=hexagon;perimeter=hexagonPerimeter2;whiteSpace=wrap;html=1;fixedSize=1;fontFamily=Helvetica;fontSize=12;fontColor=#ffffff;gradientColor=#303030;fillColor=#263F63;strokeColor=#006EAF;rounded=0;" parent="1" vertex="1">
          <mxGeometry x="-250.06" y="1280" width="100" height="40" as="geometry" />
        </mxCell>
        <mxCell id="UVocr931k_2hGVf8hIcp-299" style="edgeStyle=orthogonalEdgeStyle;shape=connector;rounded=0;orthogonalLoop=1;jettySize=auto;html=1;labelBackgroundColor=default;strokeColor=#FFC53D;strokeWidth=2;align=center;verticalAlign=bottom;fontFamily=Helvetica;fontSize=11;fontColor=default;endArrow=classic;endFill=1;endSize=8;" parent="1" source="UVocr931k_2hGVf8hIcp-278" target="UVocr931k_2hGVf8hIcp-276" edge="1">
          <mxGeometry relative="1" as="geometry" />
        </mxCell>
        <mxCell id="UVocr931k_2hGVf8hIcp-278" value="&lt;font color=&quot;#ffffff&quot;&gt;Likes&amp;nbsp;&lt;/font&gt;&lt;font style=&quot;&quot;&gt;&lt;font color=&quot;#ffffff&quot;&gt;🤍/❤️&lt;/font&gt;&lt;br&gt;&lt;/font&gt;" style="rounded=1;whiteSpace=wrap;html=1;arcSize=40;fontColor=#000000;fillColor=#4ED4D0;strokeColor=#1CD4C2;gradientColor=#1C3F40;fontFamily=Helvetica;fontSize=11;" parent="1" vertex="1">
          <mxGeometry x="-240.06" y="1200" width="80" height="40" as="geometry" />
        </mxCell>
        <mxCell id="1Q1zJ-E6xf9HNXKGd8Qc-3" style="edgeStyle=orthogonalEdgeStyle;shape=connector;rounded=0;orthogonalLoop=1;jettySize=auto;html=1;entryX=0;entryY=0.5;entryDx=0;entryDy=0;labelBackgroundColor=default;strokeColor=#FFC53D;strokeWidth=2;align=center;verticalAlign=bottom;fontFamily=Helvetica;fontSize=11;fontColor=default;endArrow=classic;endFill=1;endSize=8;" edge="1" parent="1" source="UVocr931k_2hGVf8hIcp-284" target="UVocr931k_2hGVf8hIcp-278">
          <mxGeometry relative="1" as="geometry">
            <Array as="points">
              <mxPoint x="-280" y="1220" />
            </Array>
          </mxGeometry>
        </mxCell>
        <mxCell id="UVocr931k_2hGVf8hIcp-284" value="&lt;font style=&quot;font-size: 10px;&quot; color=&quot;#ffffff&quot;&gt;Changes to&lt;br&gt;Unlikes 🤍&lt;/font&gt;" style="rounded=1;whiteSpace=wrap;html=1;arcSize=40;fontColor=#000000;fillColor=none;strokeColor=#FFFFFF;gradientColor=#1C3F40;fontFamily=Helvetica;fontSize=11;" parent="1" vertex="1">
          <mxGeometry x="-300.06" y="1400" width="80" height="40" as="geometry" />
        </mxCell>
        <mxCell id="1Q1zJ-E6xf9HNXKGd8Qc-2" style="edgeStyle=orthogonalEdgeStyle;shape=connector;rounded=0;orthogonalLoop=1;jettySize=auto;html=1;labelBackgroundColor=default;strokeColor=#FFC53D;strokeWidth=2;align=center;verticalAlign=bottom;fontFamily=Helvetica;fontSize=11;fontColor=default;endArrow=classic;endFill=1;endSize=8;" edge="1" parent="1" source="UVocr931k_2hGVf8hIcp-285" target="UVocr931k_2hGVf8hIcp-278">
          <mxGeometry relative="1" as="geometry">
            <Array as="points">
              <mxPoint x="-120" y="1220" />
            </Array>
          </mxGeometry>
        </mxCell>
        <mxCell id="UVocr931k_2hGVf8hIcp-285" value="&lt;font style=&quot;font-size: 10px;&quot; color=&quot;#ffffff&quot;&gt;Changes to&lt;br&gt;Likes ❤️&lt;/font&gt;" style="rounded=1;whiteSpace=wrap;html=1;arcSize=40;fontColor=#000000;fillColor=none;strokeColor=#FFFFFF;gradientColor=#1C3F40;fontFamily=Helvetica;fontSize=11;" parent="1" vertex="1">
          <mxGeometry x="-180.06" y="1400" width="80" height="40" as="geometry" />
        </mxCell>
        <mxCell id="UVocr931k_2hGVf8hIcp-292" value="&lt;font color=&quot;#ff6b6b&quot;&gt;No&lt;/font&gt;" style="text;html=1;align=center;verticalAlign=middle;resizable=0;points=[];autosize=1;strokeColor=none;fillColor=none;fontSize=11;fontFamily=Helvetica;fontColor=default;" parent="1" vertex="1">
          <mxGeometry x="-190.06" y="1330" width="40" height="30" as="geometry" />
        </mxCell>
        <mxCell id="UVocr931k_2hGVf8hIcp-293" value="&lt;font color=&quot;#42ff75&quot;&gt;Yes&lt;/font&gt;" style="text;html=1;align=center;verticalAlign=middle;resizable=0;points=[];autosize=1;strokeColor=none;fillColor=none;fontSize=11;fontFamily=Helvetica;fontColor=default;" parent="1" vertex="1">
          <mxGeometry x="-250.06" y="1330" width="40" height="30" as="geometry" />
        </mxCell>
        <mxCell id="UVocr931k_2hGVf8hIcp-308" style="edgeStyle=orthogonalEdgeStyle;shape=connector;rounded=0;orthogonalLoop=1;jettySize=auto;html=1;labelBackgroundColor=default;strokeColor=#42FF75;strokeWidth=2;align=center;verticalAlign=bottom;fontFamily=Helvetica;fontSize=11;fontColor=default;endArrow=classic;endFill=1;endSize=8;" parent="1" source="UVocr931k_2hGVf8hIcp-310" target="UVocr931k_2hGVf8hIcp-314" edge="1">
          <mxGeometry relative="1" as="geometry">
            <Array as="points">
              <mxPoint x="50" y="1360" />
              <mxPoint y="1360" />
            </Array>
          </mxGeometry>
        </mxCell>
        <mxCell id="UVocr931k_2hGVf8hIcp-309" style="edgeStyle=orthogonalEdgeStyle;shape=connector;rounded=0;orthogonalLoop=1;jettySize=auto;html=1;labelBackgroundColor=default;strokeColor=#FF3333;strokeWidth=2;align=center;verticalAlign=bottom;fontFamily=Helvetica;fontSize=11;fontColor=default;endArrow=classic;endFill=1;endSize=8;" parent="1" source="UVocr931k_2hGVf8hIcp-310" target="UVocr931k_2hGVf8hIcp-316" edge="1">
          <mxGeometry relative="1" as="geometry">
            <Array as="points">
              <mxPoint x="70" y="1360" />
              <mxPoint x="120" y="1360" />
            </Array>
          </mxGeometry>
        </mxCell>
        <mxCell id="UVocr931k_2hGVf8hIcp-310" value="Following?" style="shape=hexagon;perimeter=hexagonPerimeter2;whiteSpace=wrap;html=1;fixedSize=1;fontFamily=Helvetica;fontSize=12;fontColor=#ffffff;gradientColor=#303030;fillColor=#263F63;strokeColor=#006EAF;rounded=0;" parent="1" vertex="1">
          <mxGeometry x="9.879999999999995" y="1280" width="100" height="40" as="geometry" />
        </mxCell>
        <mxCell id="UVocr931k_2hGVf8hIcp-311" style="edgeStyle=orthogonalEdgeStyle;shape=connector;rounded=0;orthogonalLoop=1;jettySize=auto;html=1;labelBackgroundColor=default;strokeColor=#FFC53D;strokeWidth=2;align=center;verticalAlign=bottom;fontFamily=Helvetica;fontSize=11;fontColor=default;endArrow=classic;endFill=1;endSize=8;" parent="1" source="UVocr931k_2hGVf8hIcp-312" target="UVocr931k_2hGVf8hIcp-310" edge="1">
          <mxGeometry relative="1" as="geometry" />
        </mxCell>
        <mxCell id="UVocr931k_2hGVf8hIcp-312" value="&lt;font style=&quot;&quot;&gt;&lt;font color=&quot;#ffffff&quot;&gt;Followers&lt;/font&gt;&lt;br&gt;&lt;/font&gt;" style="rounded=1;whiteSpace=wrap;html=1;arcSize=40;fontColor=#000000;fillColor=#4ED4D0;strokeColor=#1CD4C2;gradientColor=#1C3F40;fontFamily=Helvetica;fontSize=11;" parent="1" vertex="1">
          <mxGeometry x="19.76" y="1200" width="80.24" height="40" as="geometry" />
        </mxCell>
        <mxCell id="1Q1zJ-E6xf9HNXKGd8Qc-4" style="edgeStyle=orthogonalEdgeStyle;shape=connector;rounded=0;orthogonalLoop=1;jettySize=auto;html=1;entryX=0;entryY=0.5;entryDx=0;entryDy=0;labelBackgroundColor=default;strokeColor=#FFC53D;strokeWidth=2;align=center;verticalAlign=bottom;fontFamily=Helvetica;fontSize=11;fontColor=default;endArrow=classic;endFill=1;endSize=8;" edge="1" parent="1" source="UVocr931k_2hGVf8hIcp-314" target="UVocr931k_2hGVf8hIcp-312">
          <mxGeometry relative="1" as="geometry">
            <Array as="points">
              <mxPoint x="-20" y="1220" />
            </Array>
          </mxGeometry>
        </mxCell>
        <mxCell id="UVocr931k_2hGVf8hIcp-314" value="&lt;font style=&quot;font-size: 10px;&quot; color=&quot;#ffffff&quot;&gt;Changes to&lt;br&gt;Unfollow&lt;/font&gt;" style="rounded=1;whiteSpace=wrap;html=1;arcSize=40;fontColor=#000000;fillColor=none;strokeColor=#FFFFFF;gradientColor=#1C3F40;fontFamily=Helvetica;fontSize=11;" parent="1" vertex="1">
          <mxGeometry x="-40.120000000000005" y="1400" width="80" height="40" as="geometry" />
        </mxCell>
        <mxCell id="1Q1zJ-E6xf9HNXKGd8Qc-1" style="edgeStyle=orthogonalEdgeStyle;rounded=0;orthogonalLoop=1;jettySize=auto;html=1;entryX=1;entryY=0.5;entryDx=0;entryDy=0;verticalAlign=bottom;strokeColor=#FFC53D;strokeWidth=2;endFill=1;endSize=8;" edge="1" parent="1" source="UVocr931k_2hGVf8hIcp-316" target="UVocr931k_2hGVf8hIcp-312">
          <mxGeometry relative="1" as="geometry">
            <Array as="points">
              <mxPoint x="140" y="1220" />
            </Array>
          </mxGeometry>
        </mxCell>
        <mxCell id="UVocr931k_2hGVf8hIcp-316" value="&lt;font style=&quot;font-size: 10px;&quot; color=&quot;#ffffff&quot;&gt;Changes to&lt;br&gt;Follow&lt;/font&gt;" style="rounded=1;whiteSpace=wrap;html=1;arcSize=40;fontColor=#000000;fillColor=none;strokeColor=#FFFFFF;gradientColor=#1C3F40;fontFamily=Helvetica;fontSize=11;" parent="1" vertex="1">
          <mxGeometry x="79.88" y="1400" width="80" height="40" as="geometry" />
        </mxCell>
        <mxCell id="UVocr931k_2hGVf8hIcp-317" value="&lt;font color=&quot;#ff6b6b&quot;&gt;No&lt;/font&gt;" style="text;html=1;align=center;verticalAlign=middle;resizable=0;points=[];autosize=1;strokeColor=none;fillColor=none;fontSize=11;fontFamily=Helvetica;fontColor=default;" parent="1" vertex="1">
          <mxGeometry x="69.88" y="1330" width="40" height="30" as="geometry" />
        </mxCell>
        <mxCell id="UVocr931k_2hGVf8hIcp-318" value="&lt;font color=&quot;#42ff75&quot;&gt;Yes&lt;/font&gt;" style="text;html=1;align=center;verticalAlign=middle;resizable=0;points=[];autosize=1;strokeColor=none;fillColor=none;fontSize=11;fontFamily=Helvetica;fontColor=default;" parent="1" vertex="1">
          <mxGeometry x="9.879999999999995" y="1330" width="40" height="30" as="geometry" />
        </mxCell>
        <mxCell id="UVocr931k_2hGVf8hIcp-334" style="edgeStyle=orthogonalEdgeStyle;shape=connector;rounded=0;orthogonalLoop=1;jettySize=auto;html=1;labelBackgroundColor=default;strokeColor=#FFC53D;strokeWidth=2;align=center;verticalAlign=bottom;fontFamily=Helvetica;fontSize=11;fontColor=default;endArrow=classic;endFill=1;endSize=8;" parent="1" source="UVocr931k_2hGVf8hIcp-329" target="UVocr931k_2hGVf8hIcp-332" edge="1">
          <mxGeometry relative="1" as="geometry" />
        </mxCell>
        <mxCell id="UVocr931k_2hGVf8hIcp-329" value="&lt;font style=&quot;&quot;&gt;&lt;font color=&quot;#ffffff&quot;&gt;Pagination&lt;/font&gt;&lt;br&gt;&lt;/font&gt;" style="rounded=1;whiteSpace=wrap;html=1;arcSize=40;fontColor=#000000;fillColor=#4ED4D0;strokeColor=#1CD4C2;gradientColor=#1C3F40;fontFamily=Helvetica;fontSize=11;" parent="1" vertex="1">
          <mxGeometry x="-160" y="1080" width="80" height="40" as="geometry" />
        </mxCell>
        <mxCell id="UVocr931k_2hGVf8hIcp-332" value="&lt;font color=&quot;#ffffff&quot;&gt;New page #&lt;/font&gt;" style="rounded=1;whiteSpace=wrap;html=1;arcSize=40;fontColor=#000000;fillColor=none;strokeColor=#FFFFFF;gradientColor=#1C3F40;fontFamily=Helvetica;fontSize=11;" parent="1" vertex="1">
          <mxGeometry x="-160" y="1000" width="80" height="40" as="geometry" />
        </mxCell>
        <mxCell id="UVocr931k_2hGVf8hIcp-367" style="edgeStyle=orthogonalEdgeStyle;shape=connector;rounded=0;orthogonalLoop=1;jettySize=auto;html=1;labelBackgroundColor=default;strokeColor=#FFC53D;strokeWidth=2;align=center;verticalAlign=bottom;fontFamily=Helvetica;fontSize=11;fontColor=default;endArrow=classic;endFill=1;endSize=8;" parent="1" source="UVocr931k_2hGVf8hIcp-332" edge="1">
          <mxGeometry relative="1" as="geometry">
            <mxPoint y="1050" as="targetPoint" />
            <Array as="points">
              <mxPoint x="-40" y="1020" />
              <mxPoint x="-40" y="1050" />
              <mxPoint y="1050" />
            </Array>
          </mxGeometry>
        </mxCell>
        <mxCell id="UVocr931k_2hGVf8hIcp-368" style="edgeStyle=orthogonalEdgeStyle;shape=connector;rounded=0;orthogonalLoop=1;jettySize=auto;html=1;entryX=1;entryY=0.5;entryDx=0;entryDy=0;labelBackgroundColor=default;strokeColor=#FFC53D;strokeWidth=2;align=center;verticalAlign=bottom;fontFamily=Helvetica;fontSize=11;fontColor=default;endArrow=classic;endFill=1;endSize=8;" parent="1" target="UVocr931k_2hGVf8hIcp-370" edge="1">
          <mxGeometry relative="1" as="geometry">
            <mxPoint x="440" y="1070" as="sourcePoint" />
            <Array as="points">
              <mxPoint x="400" y="1070" />
              <mxPoint x="400" y="1100" />
            </Array>
          </mxGeometry>
        </mxCell>
        <mxCell id="UVocr931k_2hGVf8hIcp-369" style="edgeStyle=orthogonalEdgeStyle;shape=connector;rounded=0;orthogonalLoop=1;jettySize=auto;html=1;labelBackgroundColor=default;strokeColor=#FFC53D;strokeWidth=2;align=center;verticalAlign=bottom;fontFamily=Helvetica;fontSize=11;fontColor=default;endArrow=classic;endFill=1;endSize=8;" parent="1" source="UVocr931k_2hGVf8hIcp-370" target="UVocr931k_2hGVf8hIcp-371" edge="1">
          <mxGeometry relative="1" as="geometry" />
        </mxCell>
        <mxCell id="UVocr931k_2hGVf8hIcp-370" value="&lt;font style=&quot;&quot;&gt;&lt;font color=&quot;#ffffff&quot;&gt;Pagination&lt;/font&gt;&lt;br&gt;&lt;/font&gt;" style="rounded=1;whiteSpace=wrap;html=1;arcSize=40;fontColor=#000000;fillColor=#4ED4D0;strokeColor=#1CD4C2;gradientColor=#1C3F40;fontFamily=Helvetica;fontSize=11;" parent="1" vertex="1">
          <mxGeometry x="280" y="1080" width="80" height="40" as="geometry" />
        </mxCell>
        <mxCell id="UVocr931k_2hGVf8hIcp-373" style="edgeStyle=orthogonalEdgeStyle;shape=connector;rounded=0;orthogonalLoop=1;jettySize=auto;html=1;labelBackgroundColor=default;strokeColor=#FFC53D;strokeWidth=2;align=center;verticalAlign=bottom;fontFamily=Helvetica;fontSize=11;fontColor=default;endArrow=classic;endFill=1;endSize=8;" parent="1" source="UVocr931k_2hGVf8hIcp-371" edge="1">
          <mxGeometry relative="1" as="geometry">
            <mxPoint x="440" y="1050" as="targetPoint" />
            <Array as="points">
              <mxPoint x="400" y="1020" />
              <mxPoint x="400" y="1050" />
              <mxPoint x="440" y="1050" />
            </Array>
          </mxGeometry>
        </mxCell>
        <mxCell id="UVocr931k_2hGVf8hIcp-371" value="&lt;font color=&quot;#ffffff&quot;&gt;New page #&lt;/font&gt;" style="rounded=1;whiteSpace=wrap;html=1;arcSize=40;fontColor=#000000;fillColor=none;strokeColor=#FFFFFF;gradientColor=#1C3F40;fontFamily=Helvetica;fontSize=11;" parent="1" vertex="1">
          <mxGeometry x="280" y="1000" width="80" height="40" as="geometry" />
        </mxCell>
        <mxCell id="UVocr931k_2hGVf8hIcp-374" style="edgeStyle=orthogonalEdgeStyle;shape=connector;rounded=0;orthogonalLoop=1;jettySize=auto;html=1;entryX=1;entryY=0.5;entryDx=0;entryDy=0;labelBackgroundColor=default;strokeColor=#FFC53D;strokeWidth=2;align=center;verticalAlign=bottom;fontFamily=Helvetica;fontSize=11;fontColor=default;endArrow=classic;endFill=1;endSize=8;" parent="1" target="UVocr931k_2hGVf8hIcp-376" edge="1">
          <mxGeometry relative="1" as="geometry">
            <mxPoint x="-400" y="710" as="sourcePoint" />
            <Array as="points">
              <mxPoint x="-440" y="710" />
              <mxPoint x="-440" y="740" />
            </Array>
          </mxGeometry>
        </mxCell>
        <mxCell id="UVocr931k_2hGVf8hIcp-375" style="edgeStyle=orthogonalEdgeStyle;shape=connector;rounded=0;orthogonalLoop=1;jettySize=auto;html=1;labelBackgroundColor=default;strokeColor=#FFC53D;strokeWidth=2;align=center;verticalAlign=bottom;fontFamily=Helvetica;fontSize=11;fontColor=default;endArrow=classic;endFill=1;endSize=8;" parent="1" source="UVocr931k_2hGVf8hIcp-376" target="UVocr931k_2hGVf8hIcp-377" edge="1">
          <mxGeometry relative="1" as="geometry" />
        </mxCell>
        <mxCell id="UVocr931k_2hGVf8hIcp-376" value="&lt;font style=&quot;&quot;&gt;&lt;font color=&quot;#ffffff&quot;&gt;Pagination&lt;/font&gt;&lt;br&gt;&lt;/font&gt;" style="rounded=1;whiteSpace=wrap;html=1;arcSize=40;fontColor=#000000;fillColor=#4ED4D0;strokeColor=#1CD4C2;gradientColor=#1C3F40;fontFamily=Helvetica;fontSize=11;" parent="1" vertex="1">
          <mxGeometry x="-560" y="720" width="80" height="40" as="geometry" />
        </mxCell>
        <mxCell id="UVocr931k_2hGVf8hIcp-377" value="&lt;font color=&quot;#ffffff&quot;&gt;New page #&lt;/font&gt;" style="rounded=1;whiteSpace=wrap;html=1;arcSize=40;fontColor=#000000;fillColor=none;strokeColor=#FFFFFF;gradientColor=#1C3F40;fontFamily=Helvetica;fontSize=11;" parent="1" vertex="1">
          <mxGeometry x="-560" y="640" width="80" height="40" as="geometry" />
        </mxCell>
        <mxCell id="UVocr931k_2hGVf8hIcp-378" style="edgeStyle=orthogonalEdgeStyle;shape=connector;rounded=0;orthogonalLoop=1;jettySize=auto;html=1;labelBackgroundColor=default;strokeColor=#FFC53D;strokeWidth=2;align=center;verticalAlign=bottom;fontFamily=Helvetica;fontSize=11;fontColor=default;endArrow=classic;endFill=1;endSize=8;" parent="1" source="UVocr931k_2hGVf8hIcp-377" edge="1">
          <mxGeometry relative="1" as="geometry">
            <mxPoint x="-400" y="690" as="targetPoint" />
            <Array as="points">
              <mxPoint x="-440" y="660" />
              <mxPoint x="-440" y="690" />
              <mxPoint x="-400" y="690" />
            </Array>
          </mxGeometry>
        </mxCell>
        <mxCell id="86_-Uz71LiWEpe0kazTY-26" style="edgeStyle=orthogonalEdgeStyle;shape=connector;rounded=0;orthogonalLoop=1;jettySize=auto;html=1;labelBackgroundColor=default;strokeColor=#FFC53D;strokeWidth=2;align=center;verticalAlign=bottom;fontFamily=Helvetica;fontSize=11;fontColor=default;endArrow=classic;endFill=1;endSize=8;" parent="1" source="86_-Uz71LiWEpe0kazTY-20" target="UVocr931k_2hGVf8hIcp-70" edge="1">
          <mxGeometry relative="1" as="geometry">
            <Array as="points">
              <mxPoint x="280" y="760" />
              <mxPoint x="90" y="760" />
            </Array>
          </mxGeometry>
        </mxCell>
        <mxCell id="86_-Uz71LiWEpe0kazTY-20" value="&lt;font color=&quot;#ffffff&quot;&gt;&amp;lt;Name of a user&amp;gt;&lt;/font&gt;" style="rounded=1;whiteSpace=wrap;html=1;arcSize=40;fontColor=#000000;fillColor=#4ED4D0;strokeColor=#1CD4C2;gradientColor=#1C3F40;fontFamily=Helvetica;fontSize=11;" parent="1" vertex="1">
          <mxGeometry x="220" y="680" width="120" height="40" as="geometry" />
        </mxCell>
        <mxCell id="86_-Uz71LiWEpe0kazTY-91" value="Start/Entry Point" style="text;html=1;align=center;verticalAlign=middle;resizable=0;points=[];autosize=1;strokeColor=none;fillColor=none;fontSize=11;fontFamily=Helvetica;fontColor=default;" parent="1" vertex="1">
          <mxGeometry x="350" y="170" width="100" height="30" as="geometry" />
        </mxCell>
        <mxCell id="86_-Uz71LiWEpe0kazTY-92" value="&lt;span style=&quot;color: rgb(240, 240, 240); font-family: Helvetica; font-size: 11px; font-style: normal; font-variant-ligatures: normal; font-variant-caps: normal; font-weight: 400; letter-spacing: normal; orphans: 2; text-indent: 0px; text-transform: none; widows: 2; word-spacing: 0px; -webkit-text-stroke-width: 0px; background-color: rgb(24, 20, 29); text-decoration-thickness: initial; text-decoration-style: initial; text-decoration-color: initial; float: none; display: inline !important;&quot;&gt;Stop/Exit Point&lt;/span&gt;" style="text;whiteSpace=wrap;html=1;fontSize=11;fontFamily=Helvetica;fontColor=default;align=center;" parent="1" vertex="1">
          <mxGeometry x="450" y="1325" width="110" height="40" as="geometry" />
        </mxCell>
        <mxCell id="86_-Uz71LiWEpe0kazTY-93" value="&lt;span style=&quot;color: rgb(240, 240, 240); font-family: Helvetica; font-size: 11px; font-style: normal; font-variant-ligatures: normal; font-variant-caps: normal; font-weight: 400; letter-spacing: normal; orphans: 2; text-indent: 0px; text-transform: none; widows: 2; word-spacing: 0px; -webkit-text-stroke-width: 0px; background-color: rgb(24, 20, 29); text-decoration-thickness: initial; text-decoration-style: initial; text-decoration-color: initial; float: none; display: inline !important;&quot;&gt;Stop/Exit Point&lt;/span&gt;" style="text;whiteSpace=wrap;html=1;fontSize=11;fontFamily=Helvetica;fontColor=default;align=center;" parent="1" vertex="1">
          <mxGeometry x="-335" y="930" width="110" height="40" as="geometry" />
        </mxCell>
        <mxCell id="TM1oY8ZDuwdEDybgg5Zl-3" value="&lt;font style=&quot;font-size: 20px;&quot;&gt;Legends&lt;/font&gt;" style="rounded=0;whiteSpace=wrap;html=1;fontFamily=Helvetica;fontSize=11;fontColor=default;gradientColor=#303030;align=center;verticalAlign=top;spacingTop=0;fillColor=#221C29;container=0;spacing=3;" parent="1" vertex="1">
          <mxGeometry x="-520" y="240" width="720" height="300" as="geometry" />
        </mxCell>
        <mxCell id="TM1oY8ZDuwdEDybgg5Zl-4" value="" style="endArrow=none;html=1;rounded=0;labelBackgroundColor=default;strokeColor=#FFFFFF;strokeWidth=2;align=center;verticalAlign=bottom;fontFamily=Helvetica;fontSize=11;fontColor=default;endSize=8;shape=connector;" parent="1" edge="1">
          <mxGeometry width="50" height="50" relative="1" as="geometry">
            <mxPoint x="-429.99999999999994" y="280" as="sourcePoint" />
            <mxPoint x="-69.99999999999994" y="280" as="targetPoint" />
          </mxGeometry>
        </mxCell>
        <mxCell id="TM1oY8ZDuwdEDybgg5Zl-6" style="shape=connector;rounded=0;orthogonalLoop=1;jettySize=auto;html=1;labelBackgroundColor=default;strokeColor=#FFC53D;strokeWidth=2;align=center;verticalAlign=bottom;fontFamily=Helvetica;fontSize=11;fontColor=default;endArrow=classic;endFill=1;endSize=8;" parent="1" edge="1">
          <mxGeometry relative="1" as="geometry">
            <mxPoint x="40.180000000000234" y="344.86" as="targetPoint" />
            <mxPoint x="-39.819999999999766" y="344.86" as="sourcePoint" />
          </mxGeometry>
        </mxCell>
        <mxCell id="TM1oY8ZDuwdEDybgg5Zl-7" value="Path" style="text;html=1;align=left;verticalAlign=middle;resizable=0;points=[];autosize=1;strokeColor=none;fillColor=none;fontSize=11;fontFamily=Helvetica;fontColor=default;container=0;" parent="1" vertex="1">
          <mxGeometry x="50.180000000000234" y="330" width="50" height="30" as="geometry" />
        </mxCell>
        <mxCell id="TM1oY8ZDuwdEDybgg5Zl-8" style="shape=connector;rounded=0;orthogonalLoop=1;jettySize=auto;html=1;labelBackgroundColor=default;strokeColor=#FF3333;strokeWidth=2;align=center;verticalAlign=bottom;fontFamily=Helvetica;fontSize=11;fontColor=default;endArrow=classic;endFill=1;endSize=8;" parent="1" edge="1">
          <mxGeometry relative="1" as="geometry">
            <mxPoint x="40.00000000000017" y="419.81999999999994" as="targetPoint" />
            <mxPoint x="-39.99999999999983" y="419.81999999999994" as="sourcePoint" />
          </mxGeometry>
        </mxCell>
        <mxCell id="TM1oY8ZDuwdEDybgg5Zl-9" value="" style="rounded=1;whiteSpace=wrap;html=1;arcSize=40;fontColor=#000000;fillColor=#4ED4D0;strokeColor=#1CD4C2;gradientColor=#1C3F40;fontFamily=Helvetica;fontSize=11;container=0;" parent="1" vertex="1">
          <mxGeometry x="-319.99999999999994" y="375" width="80.06" height="20" as="geometry" />
        </mxCell>
        <mxCell id="TM1oY8ZDuwdEDybgg5Zl-10" value="Interaction Component" style="text;html=1;align=left;verticalAlign=middle;resizable=0;points=[];autosize=1;strokeColor=none;fillColor=none;fontSize=11;fontFamily=Helvetica;fontColor=default;container=0;" parent="1" vertex="1">
          <mxGeometry x="-229.93999999999977" y="370" width="130" height="30" as="geometry" />
        </mxCell>
        <mxCell id="TM1oY8ZDuwdEDybgg5Zl-11" value="" style="shape=hexagon;perimeter=hexagonPerimeter2;whiteSpace=wrap;html=1;fixedSize=1;fontFamily=Helvetica;fontSize=12;fontColor=#ffffff;gradientColor=#303030;fillColor=#263F63;strokeColor=#006EAF;rounded=0;container=0;" parent="1" vertex="1">
          <mxGeometry x="-319.94" y="490" width="80.06" height="20" as="geometry" />
        </mxCell>
        <mxCell id="TM1oY8ZDuwdEDybgg5Zl-12" value="Condition" style="text;html=1;align=left;verticalAlign=middle;resizable=0;points=[];autosize=1;strokeColor=none;fillColor=none;fontSize=11;fontFamily=Helvetica;fontColor=default;container=0;" parent="1" vertex="1">
          <mxGeometry x="-229.87999999999988" y="485" width="70" height="30" as="geometry" />
        </mxCell>
        <mxCell id="TM1oY8ZDuwdEDybgg5Zl-13" style="shape=connector;rounded=0;orthogonalLoop=1;jettySize=auto;html=1;labelBackgroundColor=default;strokeColor=#42FF75;strokeWidth=2;align=center;verticalAlign=bottom;fontFamily=Helvetica;fontSize=11;fontColor=default;endArrow=classic;endFill=1;endSize=8;" parent="1" edge="1">
          <mxGeometry relative="1" as="geometry">
            <mxPoint x="40.00000000000017" y="380" as="targetPoint" />
            <mxPoint x="-39.99999999999983" y="380" as="sourcePoint" />
          </mxGeometry>
        </mxCell>
        <mxCell id="TM1oY8ZDuwdEDybgg5Zl-14" value="Path with condition false" style="text;html=1;align=left;verticalAlign=middle;resizable=0;points=[];autosize=1;strokeColor=none;fillColor=none;fontSize=11;fontFamily=Helvetica;fontColor=default;container=0;" parent="1" vertex="1">
          <mxGeometry x="50.00000000000017" y="405" width="140" height="30" as="geometry" />
        </mxCell>
        <mxCell id="TM1oY8ZDuwdEDybgg5Zl-15" value="Path with condition true" style="text;html=1;align=left;verticalAlign=middle;resizable=0;points=[];autosize=1;strokeColor=none;fillColor=none;fontSize=11;fontFamily=Helvetica;fontColor=default;container=0;" parent="1" vertex="1">
          <mxGeometry x="50.00000000000017" y="365" width="140" height="30" as="geometry" />
        </mxCell>
        <mxCell id="TM1oY8ZDuwdEDybgg5Zl-16" style="shape=connector;rounded=0;orthogonalLoop=1;jettySize=auto;html=1;labelBackgroundColor=default;strokeColor=#FF3333;strokeWidth=2;align=center;verticalAlign=bottom;fontFamily=Helvetica;fontSize=11;fontColor=default;endArrow=classic;endFill=1;endSize=8;" parent="1" edge="1">
          <mxGeometry relative="1" as="geometry">
            <mxPoint x="0.06000000000022965" y="419.81999999999994" as="targetPoint" />
            <mxPoint x="-39.939999999999884" y="419.81999999999994" as="sourcePoint" />
          </mxGeometry>
        </mxCell>
        <mxCell id="TM1oY8ZDuwdEDybgg5Zl-17" value="Stop/Exit Point" style="text;html=1;align=left;verticalAlign=middle;resizable=0;points=[];autosize=1;strokeColor=none;fillColor=none;fontSize=11;fontFamily=Helvetica;fontColor=default;container=0;" parent="1" vertex="1">
          <mxGeometry x="-459.99999999999994" y="370" width="100" height="30" as="geometry" />
        </mxCell>
        <mxCell id="TM1oY8ZDuwdEDybgg5Zl-18" value="" style="ellipse;whiteSpace=wrap;html=1;aspect=fixed;gradientColor=#404040;shadow=1;fontFamily=Helvetica;fontSize=11;fontColor=default;container=0;" parent="1" vertex="1">
          <mxGeometry x="-489.99999999999994" y="335" width="20" height="20" as="geometry" />
        </mxCell>
        <mxCell id="TM1oY8ZDuwdEDybgg5Zl-19" value="Starting/Entry Point" style="text;html=1;align=left;verticalAlign=middle;resizable=0;points=[];autosize=1;strokeColor=none;fillColor=none;fontSize=11;fontFamily=Helvetica;fontColor=default;container=0;" parent="1" vertex="1">
          <mxGeometry x="-459.99999999999994" y="330" width="120" height="30" as="geometry" />
        </mxCell>
        <mxCell id="TM1oY8ZDuwdEDybgg5Zl-23" value="" style="rounded=1;whiteSpace=wrap;html=1;arcSize=40;fontColor=#000000;fillColor=#ffffc0;strokeColor=#FFA914;gradientColor=#F0C686;fontFamily=Helvetica;fontSize=11;container=0;" parent="1" vertex="1">
          <mxGeometry x="-319.94" y="335" width="80.06" height="20" as="geometry" />
        </mxCell>
        <mxCell id="TM1oY8ZDuwdEDybgg5Zl-24" value="Navigation Component / Page" style="text;html=1;align=left;verticalAlign=middle;resizable=0;points=[];autosize=1;strokeColor=none;fillColor=none;fontSize=11;fontFamily=Helvetica;fontColor=default;container=0;" parent="1" vertex="1">
          <mxGeometry x="-229.99999999999994" y="330" width="170" height="30" as="geometry" />
        </mxCell>
        <mxCell id="TM1oY8ZDuwdEDybgg5Zl-25" value="" style="rounded=1;whiteSpace=wrap;html=1;arcSize=40;fontColor=#000000;fillColor=default;strokeColor=#FFFFFF;gradientColor=#000000;fontFamily=Helvetica;fontSize=11;container=0;" parent="1" vertex="1">
          <mxGeometry x="-319.94" y="415" width="80" height="20" as="geometry" />
        </mxCell>
        <mxCell id="TM1oY8ZDuwdEDybgg5Zl-26" value="Information Component" style="text;html=1;align=left;verticalAlign=middle;resizable=0;points=[];autosize=1;strokeColor=none;fillColor=none;fontSize=11;fontFamily=Helvetica;fontColor=default;container=0;" parent="1" vertex="1">
          <mxGeometry x="-229.87999999999982" y="410" width="140" height="30" as="geometry" />
        </mxCell>
        <mxCell id="TM1oY8ZDuwdEDybgg5Zl-29" value="Constraint" style="text;html=1;align=left;verticalAlign=middle;resizable=0;points=[];autosize=1;strokeColor=none;fillColor=none;fontSize=11;fontFamily=Helvetica;fontColor=default;container=0;" parent="1" vertex="1">
          <mxGeometry x="-229.87999999999982" y="449.38" width="70" height="30" as="geometry" />
        </mxCell>
        <mxCell id="TM1oY8ZDuwdEDybgg5Zl-21" value="" style="ellipse;whiteSpace=wrap;html=1;aspect=fixed;gradientColor=none;shadow=1;fillColor=#FFFFFF;fontFamily=Helvetica;fontSize=11;fontColor=default;container=0;" parent="1" vertex="1">
          <mxGeometry x="-489.99999999999994" y="375" width="20" height="20" as="geometry" />
        </mxCell>
        <mxCell id="TM1oY8ZDuwdEDybgg5Zl-22" value="" style="ellipse;whiteSpace=wrap;html=1;aspect=fixed;gradientColor=#404040;shadow=1;fontFamily=Helvetica;fontSize=11;fontColor=default;container=0;" parent="1" vertex="1">
          <mxGeometry x="-484.99999999999994" y="380" width="10" height="10" as="geometry" />
        </mxCell>
        <mxCell id="TM1oY8ZDuwdEDybgg5Zl-38" value="" style="endArrow=none;html=1;rounded=0;labelBackgroundColor=default;strokeColor=#FFFFFF;strokeWidth=2;align=center;verticalAlign=bottom;fontFamily=Helvetica;fontSize=11;fontColor=default;endSize=8;shape=connector;" parent="1" edge="1">
          <mxGeometry width="50" height="50" relative="1" as="geometry">
            <mxPoint x="-159.99999999999994" y="280" as="sourcePoint" />
            <mxPoint x="200.00000000000006" y="280" as="targetPoint" />
          </mxGeometry>
        </mxCell>
        <mxCell id="TM1oY8ZDuwdEDybgg5Zl-39" value="" style="endArrow=none;html=1;rounded=0;labelBackgroundColor=default;strokeColor=#FFFFFF;strokeWidth=2;align=center;verticalAlign=bottom;fontFamily=Helvetica;fontSize=11;fontColor=default;endSize=8;shape=connector;" parent="1" edge="1">
          <mxGeometry width="50" height="50" relative="1" as="geometry">
            <mxPoint x="-520" y="280" as="sourcePoint" />
            <mxPoint x="-199.99999999999994" y="280" as="targetPoint" />
          </mxGeometry>
        </mxCell>
        <mxCell id="-VVq4qxPgOrjnqHyuW8r-1" style="edgeStyle=orthogonalEdgeStyle;rounded=0;orthogonalLoop=1;jettySize=auto;html=1;verticalAlign=bottom;strokeColor=#FF3333;strokeWidth=2;endFill=1;endSize=8;" parent="1" edge="1">
          <mxGeometry relative="1" as="geometry">
            <mxPoint x="490" y="620" as="targetPoint" />
            <mxPoint x="490.0175438596491" y="600" as="sourcePoint" />
          </mxGeometry>
        </mxCell>
        <mxCell id="1Q1zJ-E6xf9HNXKGd8Qc-7" value="" style="shape=callout;whiteSpace=wrap;html=1;perimeter=calloutPerimeter;fontFamily=Helvetica;fontSize=11;fontColor=default;rotation=-90;base=40;align=right;fillColor=#2B2E1B;spacingLeft=0;gradientColor=#8E9956;spacingRight=10;size=13;position=0.48;" vertex="1" parent="1">
          <mxGeometry x="-290" y="426.25" width="20.63" height="76.25" as="geometry" />
        </mxCell>
        <mxCell id="1Q1zJ-E6xf9HNXKGd8Qc-8" value="" style="group" vertex="1" connectable="0" parent="1">
          <mxGeometry x="120" y="880" width="160" height="40" as="geometry" />
        </mxCell>
        <mxCell id="1Q1zJ-E6xf9HNXKGd8Qc-5" value="" style="shape=callout;whiteSpace=wrap;html=1;perimeter=calloutPerimeter;fontFamily=Helvetica;fontSize=11;fontColor=default;rotation=-90;base=40;align=right;fillColor=#2B2E1B;spacingLeft=0;gradientColor=#8E9956;spacingRight=10;flipV=1;" vertex="1" parent="1Q1zJ-E6xf9HNXKGd8Qc-8">
          <mxGeometry x="60" y="-60" width="40" height="160" as="geometry" />
        </mxCell>
        <mxCell id="1Q1zJ-E6xf9HNXKGd8Qc-6" value="Cheep Length (0, 160]" style="text;html=1;align=center;verticalAlign=middle;resizable=0;points=[];autosize=1;strokeColor=none;fillColor=none;fontSize=11;fontFamily=Helvetica;fontColor=default;" vertex="1" parent="1Q1zJ-E6xf9HNXKGd8Qc-8">
          <mxGeometry x="30" y="5" width="130" height="30" as="geometry" />
        </mxCell>
        <mxCell id="1Q1zJ-E6xf9HNXKGd8Qc-10" value="" style="shape=callout;whiteSpace=wrap;html=1;perimeter=calloutPerimeter;fontFamily=Helvetica;fontSize=11;fontColor=default;rotation=-90;base=40;align=right;fillColor=#2B2E1B;spacingLeft=0;gradientColor=#8E9956;spacingRight=10;flipV=1;" vertex="1" parent="1">
          <mxGeometry x="713.75" y="400" width="40" height="367.5" as="geometry" />
        </mxCell>
        <mxCell id="1Q1zJ-E6xf9HNXKGd8Qc-11" value="Authorized users include: HelgeCPH, ondfisk, and a few others" style="text;html=1;align=center;verticalAlign=middle;resizable=0;points=[];autosize=1;strokeColor=none;fillColor=none;fontSize=11;fontFamily=Helvetica;fontColor=default;" vertex="1" parent="1">
          <mxGeometry x="580" y="568.75" width="330" height="30" as="geometry" />
        </mxCell>
      </root>
    </mxGraphModel>
  </diagram>
</mxfile>
